<!DOCTYPE svg PUBLIC "-//W3C//DTD SVG 1.1//EN" "http://www.w3.org/Graphics/SVG/1.1/DTD/svg11.dtd">
<svg xmlns="http://www.w3.org/2000/svg" xmlns:xlink="http://www.w3.org/1999/xlink" xmlns:jfreesvg="http://www.jfree.org/jfreesvg/svg" width="998" height="278" text-rendering="auto" shape-rendering="auto">
<defs><clipPath id="_8954082573000clip-0"><path d="M 0 0 L 998 0 L 998 378 L 0 378 L 0 0 Z "/></clipPath>
</defs>
<rect x="0" y="0" width="998" height="378" style="fill: rgb(255,255,255); fill-opacity: 1.0" clip-path="url(#_8954082573000clip-0)"/><line x1="211" y1="80" x2="84" y2="212" style="stroke-width: 1.0;stroke: rgb(0,0,0);stroke-opacity: 1.0;stroke-linecap: round;stroke-linejoin: round;" clip-path="url(#_8954082573000clip-0)"/><g style="fill: rgb(0,0,0); fill-opacity: 1.0; stroke: none" clip-path="url(#_8954082573000clip-0)"><path d="M 84 213 L 93 208 L 88 203 Z "/></g><g style="stroke-width: 1.0;stroke: rgb(0,0,0);stroke-opacity: 1.0;stroke-linecap: square;; fill: none" clip-path="url(#_8954082573000clip-0)"><path d="M 84 213 L 93 208 L 88 203 Z "/></g><line x1="227" y1="83" x2="188" y2="209" style="stroke-width: 1.0;stroke: rgb(0,0,0);stroke-opacity: 1.0;stroke-linecap: round;stroke-linejoin: round;" clip-path="url(#_8954082573000clip-0)"/><g style="fill: rgb(0,0,0); fill-opacity: 1.0; stroke: none" clip-path="url(#_8954082573000clip-0)"><path d="M 188 210 L 194 201 L 187 199 Z "/></g><g style="stroke-width: 1.0;stroke: rgb(0,0,0);stroke-opacity: 1.0;stroke-linecap: square;; fill: none" clip-path="url(#_8954082573000clip-0)"><path d="M 188 210 L 194 201 L 187 199 Z "/></g><line x1="246" y1="83" x2="288" y2="209" style="stroke-width: 1.0;stroke: rgb(0,0,0);stroke-opacity: 1.0;stroke-linecap: round;stroke-linejoin: round;" clip-path="url(#_8954082573000clip-0)"/><g style="fill: rgb(0,0,0); fill-opacity: 1.0; stroke: none" clip-path="url(#_8954082573000clip-0)"><path d="M 289 210 L 289 199 L 282 201 Z "/></g><g style="stroke-width: 1.0;stroke: rgb(0,0,0);stroke-opacity: 1.0;stroke-linecap: square;; fill: none" clip-path="url(#_8954082573000clip-0)"><path d="M 289 210 L 289 199 L 282 201 Z "/></g><line x1="261" y1="79" x2="393" y2="213" style="stroke-width: 1.0;stroke: rgb(0,0,0);stroke-opacity: 1.0;stroke-linecap: round;stroke-linejoin: round;" clip-path="url(#_8954082573000clip-0)"/><g style="fill: rgb(0,0,0); fill-opacity: 1.0; stroke: none" clip-path="url(#_8954082573000clip-0)"><path d="M 394 214 L 389 204 L 384 209 Z "/></g><g style="stroke-width: 1.0;stroke: rgb(0,0,0);stroke-opacity: 1.0;stroke-linecap: square;; fill: none" clip-path="url(#_8954082573000clip-0)"><path d="M 394 214 L 389 204 L 384 209 Z "/></g><line x1="901" y1="179" x2="818" y2="219" style="stroke-width: 1.0;stroke: rgb(0,0,0);stroke-opacity: 1.0;stroke-linecap: round;stroke-linejoin: round;" clip-path="url(#_8954082573000clip-0)"/><g style="fill: rgb(0,0,0); fill-opacity: 1.0; stroke: none" clip-path="url(#_8954082573000clip-0)"><path d="M 818 220 L 828 219 L 825 211 Z "/></g><g style="stroke-width: 1.0;stroke: rgb(0,0,0);stroke-opacity: 1.0;stroke-linecap: square;; fill: none" clip-path="url(#_8954082573000clip-0)"><path d="M 818 220 L 828 219 L 825 211 Z "/></g><line x1="620" y1="70" x2="620" y2="129" style="stroke-width: 1.0;stroke: rgb(0,0,0);stroke-opacity: 1.0;stroke-linecap: round;stroke-linejoin: round;" clip-path="url(#_8954082573000clip-0)"/><g style="fill: rgb(0,0,0); fill-opacity: 1.0; stroke: none" clip-path="url(#_8954082573000clip-0)"><path d="M 620 130 L 624 120 L 616 120 Z "/></g><g style="stroke-width: 1.0;stroke: rgb(0,0,0);stroke-opacity: 1.0;stroke-linecap: square;; fill: none" clip-path="url(#_8954082573000clip-0)"><path d="M 620 130 L 624 120 L 616 120 Z "/></g><line x1="577" y1="55" x2="102" y2="223" style="stroke-width: 1.0;stroke: rgb(0,0,0);stroke-opacity: 1.0;stroke-linecap: round;stroke-linejoin: round;" clip-path="url(#_8954082573000clip-0)"/><g style="fill: rgb(0,0,0); fill-opacity: 1.0; stroke: none" clip-path="url(#_8954082573000clip-0)"><path d="M 102 224 L 112 224 L 110 216 Z "/></g><g style="stroke-width: 1.0;stroke: rgb(0,0,0);stroke-opacity: 1.0;stroke-linecap: square;; fill: none" clip-path="url(#_8954082573000clip-0)"><path d="M 102 224 L 112 224 L 110 216 Z "/></g><line x1="651" y1="63" x2="747" y2="135" style="stroke-width: 1.0;stroke: rgb(0,0,0);stroke-opacity: 1.0;stroke-linecap: round;stroke-linejoin: round;" clip-path="url(#_8954082573000clip-0)"/><g style="fill: rgb(0,0,0); fill-opacity: 1.0; stroke: none" clip-path="url(#_8954082573000clip-0)"><path d="M 748 136 L 742 126 L 737 133 Z "/></g><g style="stroke-width: 1.0;stroke: rgb(0,0,0);stroke-opacity: 1.0;stroke-linecap: square;; fill: none" clip-path="url(#_8954082573000clip-0)"><path d="M 748 136 L 742 126 L 737 133 Z "/></g><line x1="580" y1="58" x2="219" y2="220" style="stroke-width: 1.0;stroke: rgb(0,0,0);stroke-opacity: 1.0;stroke-linecap: round;stroke-linejoin: round;" clip-path="url(#_8954082573000clip-0)"/><g style="fill: rgb(0,0,0); fill-opacity: 1.0; stroke: none" clip-path="url(#_8954082573000clip-0)"><path d="M 219 221 L 229 220 L 226 213 Z "/></g><g style="stroke-width: 1.0;stroke: rgb(0,0,0);stroke-opacity: 1.0;stroke-linecap: square;; fill: none" clip-path="url(#_8954082573000clip-0)"><path d="M 219 221 L 229 220 L 226 213 Z "/></g><line x1="585" y1="61" x2="334" y2="217" style="stroke-width: 1.0;stroke: rgb(0,0,0);stroke-opacity: 1.0;stroke-linecap: round;stroke-linejoin: round;" clip-path="url(#_8954082573000clip-0)"/><g style="fill: rgb(0,0,0); fill-opacity: 1.0; stroke: none" clip-path="url(#_8954082573000clip-0)"><path d="M 334 218 L 344 216 L 340 209 Z "/></g><g style="stroke-width: 1.0;stroke: rgb(0,0,0);stroke-opacity: 1.0;stroke-linecap: square;; fill: none" clip-path="url(#_8954082573000clip-0)"><path d="M 334 218 L 344 216 L 340 209 Z "/></g><line x1="594" y1="65" x2="445" y2="213" style="stroke-width: 1.0;stroke: rgb(0,0,0);stroke-opacity: 1.0;stroke-linecap: round;stroke-linejoin: round;" clip-path="url(#_8954082573000clip-0)"/><g style="fill: rgb(0,0,0); fill-opacity: 1.0; stroke: none" clip-path="url(#_8954082573000clip-0)"><path d="M 445 214 L 454 209 L 449 204 Z "/></g><g style="stroke-width: 1.0;stroke: rgb(0,0,0);stroke-opacity: 1.0;stroke-linecap: square;; fill: none" clip-path="url(#_8954082573000clip-0)"><path d="M 445 214 L 454 209 L 449 204 Z "/></g><line x1="780" y1="190" x2="780" y2="209" style="stroke-width: 1.0;stroke: rgb(0,0,0);stroke-opacity: 1.0;stroke-linecap: round;stroke-linejoin: round;" clip-path="url(#_8954082573000clip-0)"/><g style="fill: rgb(0,0,0); fill-opacity: 1.0; stroke: none" clip-path="url(#_8954082573000clip-0)"><path d="M 780 210 L 784 200 L 776 200 Z "/></g><g style="stroke-width: 1.0;stroke: rgb(0,0,0);stroke-opacity: 1.0;stroke-linecap: square;; fill: none" clip-path="url(#_8954082573000clip-0)"><path d="M 780 210 L 784 200 L 776 200 Z "/></g><line x1="658" y1="179" x2="740" y2="219" style="stroke-width: 1.0;stroke: rgb(0,0,0);stroke-opacity: 1.0;stroke-linecap: round;stroke-linejoin: round;" clip-path="url(#_8954082573000clip-0)"/><g style="fill: rgb(0,0,0); fill-opacity: 1.0; stroke: none" clip-path="url(#_8954082573000clip-0)"><path d="M 741 220 L 733 211 L 730 219 Z "/></g><g style="stroke-width: 1.0;stroke: rgb(0,0,0);stroke-opacity: 1.0;stroke-linecap: square;; fill: none" clip-path="url(#_8954082573000clip-0)"><path d="M 741 220 L 733 211 L 730 219 Z "/></g><ellipse cx="420" cy="240" rx="50" ry="30" style="fill: rgb(192,255,128); fill-opacity: 1.0" clip-path="url(#_8954082573000clip-0)"/><ellipse cx="420" cy="240" rx="46" ry="26" style="stroke-width: 8.0;stroke: rgb(192,192,192);stroke-opacity: 1.0;stroke-linecap: round;stroke-linejoin: round;; fill: none" clip-path="url(#_8954082573000clip-0)"/><ellipse cx="420" cy="240" rx="50" ry="30" style="stroke-width: 1.0;stroke: rgb(0,0,0);stroke-opacity: 1.0;stroke-linecap: round;stroke-linejoin: round;; fill: none" clip-path="url(#_8954082573000clip-0)"/><g style="fill: rgb(0,0,0); fill-opacity: 1.0; stroke: none" clip-path="url(#_8954082573000clip-0)"><path d="M 402.61 236 L 402.61 228.42 L 399.78 228.42 L 399.78 227.41 L 406.59 227.41 L 406.59 228.42 L 403.75 228.42 L 403.75 236 L 402.61 236 Z  M 411.88 234 L 412.97 234.12 Q 412.72 235.08 412.02 235.61 Q 411.31 236.14 410.24 236.14 Q 408.88 236.14 408.06 235.3 Q 407.27 234.45 407.27 232.94 Q 407.27 231.38 408.08 230.52 Q 408.89 229.64 410.17 229.64 Q 411.42 229.64 412.21 230.48 Q 413 231.33 413 232.88 Q 413 232.97 413 233.16 L 408.36 233.16 Q 408.42 234.19 408.94 234.73 Q 409.46 235.27 410.24 235.27 Q 410.81 235.27 411.22 234.97 Q 411.64 234.66 411.88 234 Z  M 408.42 232.3 L 411.89 232.3 Q 411.83 231.5 411.5 231.11 Q 410.99 230.5 410.19 230.5 Q 409.46 230.5 408.96 230.98 Q 408.47 231.47 408.42 232.3 Z  M 414.29 236 L 414.29 229.78 L 415.24 229.78 L 415.24 230.72 Q 415.6 230.06 415.89 229.86 Q 416.21 229.64 416.58 229.64 Q 417.11 229.64 417.66 229.97 L 417.3 230.95 Q 416.91 230.72 416.54 230.72 Q 416.18 230.72 415.89 230.94 Q 415.63 231.14 415.52 231.52 Q 415.33 232.08 415.33 232.73 L 415.33 236 L 414.29 236 Z  M 420.59 235.06 L 420.75 235.98 Q 420.3 236.08 419.95 236.08 Q 419.38 236.08 419.06 235.91 Q 418.75 235.72 418.61 235.42 Q 418.48 235.12 418.48 234.17 L 418.48 230.59 L 417.72 230.59 L 417.72 229.78 L 418.48 229.78 L 418.48 228.23 L 419.53 227.61 L 419.53 229.78 L 420.59 229.78 L 420.59 230.59 L 419.53 230.59 L 419.53 234.23 Q 419.53 234.69 419.58 234.81 Q 419.64 234.94 419.77 235.02 Q 419.89 235.09 420.12 235.09 Q 420.31 235.09 420.59 235.06 Z  M 421.63 228.62 L 421.63 227.41 L 422.69 227.41 L 422.69 228.62 L 421.63 228.62 Z  M 421.63 236 L 421.63 229.78 L 422.69 229.78 L 422.69 236 L 421.63 236 Z  M 428.36 235.23 Q 427.77 235.73 427.22 235.94 Q 426.69 236.14 426.06 236.14 Q 425.03 236.14 424.48 235.64 Q 423.94 235.14 423.94 234.36 Q 423.94 233.91 424.14 233.53 Q 424.34 233.14 424.69 232.92 Q 425.03 232.69 425.45 232.58 Q 425.75 232.48 426.39 232.41 Q 427.66 232.27 428.27 232.05 Q 428.27 231.83 428.27 231.78 Q 428.27 231.12 427.97 230.86 Q 427.56 230.52 426.77 230.52 Q 426.03 230.52 425.67 230.78 Q 425.31 231.03 425.14 231.69 L 424.11 231.55 Q 424.25 230.89 424.58 230.48 Q 424.91 230.08 425.52 229.86 Q 426.12 229.64 426.92 229.64 Q 427.72 229.64 428.22 229.83 Q 428.72 230.02 428.95 230.3 Q 429.19 230.58 429.28 231.02 Q 429.33 231.28 429.33 231.98 L 429.33 233.39 Q 429.33 234.86 429.39 235.25 Q 429.47 235.64 429.67 236 L 428.56 236 Q 428.41 235.67 428.36 235.23 Z  M 428.27 232.88 Q 427.69 233.11 426.55 233.28 Q 425.89 233.38 425.62 233.5 Q 425.36 233.61 425.2 233.83 Q 425.06 234.05 425.06 234.33 Q 425.06 234.75 425.38 235.03 Q 425.7 235.31 426.31 235.31 Q 426.92 235.31 427.39 235.05 Q 427.88 234.78 428.09 234.31 Q 428.27 233.95 428.27 233.27 L 428.27 232.88 Z  M 430.96 236 L 430.96 229.78 L 431.91 229.78 L 431.91 230.72 Q 432.27 230.06 432.56 229.86 Q 432.88 229.64 433.25 229.64 Q 433.78 229.64 434.33 229.97 L 433.97 230.95 Q 433.58 230.72 433.21 230.72 Q 432.85 230.72 432.56 230.94 Q 432.3 231.14 432.19 231.52 Q 432 232.08 432 232.73 L 432 236 L 430.96 236 Z  M 434.92 238.39 L 434.79 237.41 Q 435.14 237.5 435.4 237.5 Q 435.75 237.5 435.95 237.38 Q 436.17 237.27 436.31 237.06 Q 436.4 236.89 436.64 236.27 Q 436.65 236.19 436.73 236.02 L 434.36 229.78 L 435.5 229.78 L 436.79 233.38 Q 437.04 234.06 437.25 234.83 Q 437.44 234.09 437.69 233.41 L 439.01 229.78 L 440.06 229.78 L 437.7 236.11 Q 437.31 237.12 437.11 237.52 Q 436.83 238.05 436.45 238.28 Q 436.09 238.53 435.59 238.53 Q 435.29 238.53 434.92 238.39 Z "/></g><g style="fill: rgb(0,0,0); fill-opacity: 1.0; stroke: none" clip-path="url(#_8954082573000clip-0)"><path d="M 396.42 252 L 394.14 243.41 L 395.31 243.41 L 396.62 249.05 Q 396.83 249.92 396.98 250.8 Q 397.31 249.42 397.38 249.2 L 399 243.41 L 400.38 243.41 L 401.61 247.75 Q 402.06 249.38 402.28 250.8 Q 402.44 249.98 402.7 248.92 L 404.05 243.41 L 405.19 243.41 L 402.84 252 L 401.73 252 L 399.94 245.45 Q 399.7 244.64 399.66 244.45 Q 399.53 245.03 399.41 245.45 L 397.59 252 L 396.42 252 Z  M 407.75 252 L 405.47 243.41 L 406.64 243.41 L 407.95 249.05 Q 408.15 249.92 408.31 250.8 Q 408.64 249.42 408.7 249.2 L 410.33 243.41 L 411.7 243.41 L 412.94 247.75 Q 413.39 249.38 413.61 250.8 Q 413.76 249.98 414.03 248.92 L 415.37 243.41 L 416.51 243.41 L 414.17 252 L 413.06 252 L 411.26 245.45 Q 411.03 244.64 410.98 244.45 Q 410.86 245.03 410.73 245.45 L 408.92 252 L 407.75 252 Z  M 419.76 252 L 419.76 244.42 L 416.93 244.42 L 416.93 243.41 L 423.75 243.41 L 423.75 244.42 L 420.9 244.42 L 420.9 252 L 419.76 252 Z  M 430.13 254.53 Q 429.25 253.42 428.64 251.95 Q 428.05 250.47 428.05 248.89 Q 428.05 247.5 428.49 246.22 Q 429.02 244.73 430.13 243.27 L 430.88 243.27 Q 430.18 244.48 429.94 245 Q 429.58 245.81 429.38 246.69 Q 429.13 247.78 429.13 248.89 Q 429.13 251.72 430.88 254.53 L 430.13 254.53 Z  M 432.02 245.47 Q 432.02 244.55 432.47 243.91 Q 432.94 243.27 433.81 243.27 Q 434.62 243.27 435.16 243.84 Q 435.69 244.42 435.69 245.53 Q 435.69 246.62 435.14 247.22 Q 434.61 247.8 433.83 247.8 Q 433.05 247.8 432.53 247.22 Q 432.02 246.64 432.02 245.47 Z  M 433.84 243.98 Q 433.45 243.98 433.19 244.33 Q 432.94 244.67 432.94 245.58 Q 432.94 246.41 433.19 246.75 Q 433.45 247.08 433.84 247.08 Q 434.25 247.08 434.5 246.73 Q 434.77 246.39 434.77 245.5 Q 434.77 244.66 434.5 244.33 Q 434.23 243.98 433.84 243.98 Z  M 433.84 252.31 L 438.55 243.27 L 439.41 243.27 L 434.72 252.31 L 433.84 252.31 Z  M 437.56 249.98 Q 437.56 249.06 438.02 248.42 Q 438.48 247.78 439.38 247.78 Q 440.19 247.78 440.72 248.36 Q 441.25 248.92 441.25 250.05 Q 441.25 251.14 440.7 251.73 Q 440.17 252.31 439.38 252.31 Q 438.61 252.31 438.08 251.73 Q 437.56 251.16 437.56 249.98 Z  M 439.41 248.5 Q 439 248.5 438.73 248.84 Q 438.48 249.19 438.48 250.09 Q 438.48 250.91 438.75 251.25 Q 439.02 251.59 439.41 251.59 Q 439.8 251.59 440.06 251.25 Q 440.33 250.91 440.33 250 Q 440.33 249.17 440.06 248.84 Q 439.8 248.5 439.41 248.5 Z  M 443.47 254.53 L 442.72 254.53 Q 444.47 251.72 444.47 248.89 Q 444.47 247.8 444.22 246.7 Q 444.01 245.83 443.65 245.02 Q 443.42 244.5 442.72 243.27 L 443.47 243.27 Q 444.56 244.73 445.09 246.22 Q 445.54 247.5 445.54 248.89 Q 445.54 250.47 444.94 251.95 Q 444.33 253.42 443.47 254.53 Z "/></g><ellipse cx="300" cy="240" rx="50" ry="30" style="fill: rgb(192,255,128); fill-opacity: 1.0" clip-path="url(#_8954082573000clip-0)"/><ellipse cx="300" cy="240" rx="46" ry="26" style="stroke-width: 8.0;stroke: rgb(192,192,192);stroke-opacity: 1.0;stroke-linecap: round;stroke-linejoin: round;; fill: none" clip-path="url(#_8954082573000clip-0)"/><ellipse cx="300" cy="240" rx="50" ry="30" style="stroke-width: 1.0;stroke: rgb(0,0,0);stroke-opacity: 1.0;stroke-linecap: round;stroke-linejoin: round;; fill: none" clip-path="url(#_8954082573000clip-0)"/><g style="fill: rgb(0,0,0); fill-opacity: 1.0; stroke: none" clip-path="url(#_8954082573000clip-0)"><path d="M 272.05 233.23 L 273.11 233.14 Q 273.19 233.8 273.47 234.2 Q 273.75 234.61 274.33 234.88 Q 274.92 235.12 275.66 235.12 Q 276.3 235.12 276.8 234.94 Q 277.3 234.73 277.53 234.41 Q 277.78 234.06 277.78 233.67 Q 277.78 233.27 277.55 232.97 Q 277.31 232.66 276.78 232.45 Q 276.42 232.31 275.23 232.03 Q 274.06 231.75 273.59 231.5 Q 272.97 231.17 272.67 230.7 Q 272.38 230.22 272.38 229.62 Q 272.38 228.98 272.73 228.42 Q 273.11 227.84 273.81 227.56 Q 274.53 227.27 275.39 227.27 Q 276.34 227.27 277.08 227.58 Q 277.81 227.88 278.2 228.48 Q 278.59 229.08 278.62 229.83 L 277.53 229.91 Q 277.44 229.09 276.92 228.69 Q 276.42 228.27 275.44 228.27 Q 274.41 228.27 273.94 228.64 Q 273.47 229.02 273.47 229.55 Q 273.47 230.02 273.8 230.31 Q 274.12 230.61 275.5 230.92 Q 276.89 231.23 277.41 231.47 Q 278.16 231.83 278.52 232.36 Q 278.88 232.88 278.88 233.58 Q 278.88 234.27 278.48 234.88 Q 278.09 235.47 277.36 235.81 Q 276.62 236.14 275.7 236.14 Q 274.53 236.14 273.73 235.81 Q 272.95 235.47 272.5 234.78 Q 272.06 234.09 272.05 233.23 Z  M 284.55 234 L 285.64 234.12 Q 285.39 235.08 284.69 235.61 Q 283.99 236.14 282.91 236.14 Q 281.55 236.14 280.74 235.3 Q 279.94 234.45 279.94 232.94 Q 279.94 231.38 280.75 230.52 Q 281.57 229.64 282.85 229.64 Q 284.1 229.64 284.88 230.48 Q 285.68 231.33 285.68 232.88 Q 285.68 232.97 285.68 233.16 L 281.04 233.16 Q 281.1 234.19 281.61 234.73 Q 282.13 235.27 282.91 235.27 Q 283.49 235.27 283.89 234.97 Q 284.32 234.66 284.55 234 Z  M 281.1 232.3 L 284.57 232.3 Q 284.5 231.5 284.18 231.11 Q 283.66 230.5 282.86 230.5 Q 282.13 230.5 281.63 230.98 Q 281.14 231.47 281.1 232.3 Z  M 291.04 233.72 L 292.07 233.86 Q 291.9 234.92 291.19 235.53 Q 290.49 236.14 289.47 236.14 Q 288.19 236.14 287.41 235.31 Q 286.65 234.47 286.65 232.91 Q 286.65 231.91 286.97 231.16 Q 287.32 230.39 287.99 230.02 Q 288.68 229.64 289.49 229.64 Q 290.49 229.64 291.13 230.16 Q 291.79 230.66 291.97 231.61 L 290.94 231.77 Q 290.8 231.14 290.43 230.83 Q 290.05 230.5 289.52 230.5 Q 288.72 230.5 288.22 231.08 Q 287.72 231.64 287.72 232.88 Q 287.72 234.14 288.21 234.7 Q 288.69 235.27 289.46 235.27 Q 290.08 235.27 290.49 234.89 Q 290.91 234.52 291.04 233.72 Z  M 292.58 232.89 Q 292.58 231.16 293.54 230.33 Q 294.33 229.64 295.49 229.64 Q 296.77 229.64 297.58 230.48 Q 298.41 231.31 298.41 232.8 Q 298.41 234 298.05 234.69 Q 297.69 235.38 296.99 235.77 Q 296.3 236.14 295.49 236.14 Q 294.19 236.14 293.38 235.31 Q 292.58 234.47 292.58 232.89 Z  M 293.66 232.89 Q 293.66 234.08 294.18 234.67 Q 294.71 235.27 295.49 235.27 Q 296.29 235.27 296.8 234.67 Q 297.32 234.08 297.32 232.86 Q 297.32 231.7 296.79 231.11 Q 296.27 230.52 295.49 230.52 Q 294.71 230.52 294.18 231.11 Q 293.66 231.69 293.66 232.89 Z  M 299.65 236 L 299.65 229.78 L 300.59 229.78 L 300.59 230.66 Q 301.27 229.64 302.57 229.64 Q 303.13 229.64 303.6 229.84 Q 304.09 230.05 304.32 230.38 Q 304.55 230.7 304.65 231.14 Q 304.7 231.44 304.7 232.17 L 304.7 236 L 303.65 236 L 303.65 232.22 Q 303.65 231.56 303.52 231.25 Q 303.4 230.94 303.09 230.75 Q 302.77 230.55 302.35 230.55 Q 301.68 230.55 301.18 230.98 Q 300.7 231.41 300.7 232.59 L 300.7 236 L 299.65 236 Z  M 310.35 236 L 310.35 235.22 Q 309.76 236.14 308.62 236.14 Q 307.87 236.14 307.24 235.73 Q 306.62 235.31 306.28 234.58 Q 305.93 233.84 305.93 232.89 Q 305.93 231.97 306.24 231.2 Q 306.56 230.44 307.18 230.05 Q 307.81 229.64 308.57 229.64 Q 309.13 229.64 309.57 229.88 Q 310.01 230.11 310.29 230.48 L 310.29 227.41 L 311.34 227.41 L 311.34 236 L 310.35 236 Z  M 307.03 232.89 Q 307.03 234.09 307.53 234.69 Q 308.03 235.27 308.71 235.27 Q 309.4 235.27 309.88 234.7 Q 310.37 234.14 310.37 232.98 Q 310.37 231.7 309.87 231.11 Q 309.38 230.52 308.67 230.52 Q 307.96 230.52 307.49 231.09 Q 307.03 231.66 307.03 232.89 Z  M 317.06 235.23 Q 316.46 235.73 315.92 235.94 Q 315.39 236.14 314.76 236.14 Q 313.73 236.14 313.18 235.64 Q 312.64 235.14 312.64 234.36 Q 312.64 233.91 312.84 233.53 Q 313.04 233.14 313.39 232.92 Q 313.73 232.69 314.15 232.58 Q 314.45 232.48 315.09 232.41 Q 316.36 232.27 316.96 232.05 Q 316.96 231.83 316.96 231.78 Q 316.96 231.12 316.67 230.86 Q 316.26 230.52 315.46 230.52 Q 314.73 230.52 314.37 230.78 Q 314.01 231.03 313.84 231.69 L 312.81 231.55 Q 312.95 230.89 313.28 230.48 Q 313.61 230.08 314.21 229.86 Q 314.82 229.64 315.62 229.64 Q 316.42 229.64 316.92 229.83 Q 317.42 230.02 317.65 230.3 Q 317.89 230.58 317.98 231.02 Q 318.03 231.28 318.03 231.98 L 318.03 233.39 Q 318.03 234.86 318.09 235.25 Q 318.17 235.64 318.37 236 L 317.26 236 Q 317.11 235.67 317.06 235.23 Z  M 316.96 232.88 Q 316.39 233.11 315.25 233.28 Q 314.59 233.38 314.32 233.5 Q 314.06 233.61 313.9 233.83 Q 313.76 234.05 313.76 234.33 Q 313.76 234.75 314.07 235.03 Q 314.4 235.31 315.01 235.31 Q 315.62 235.31 316.09 235.05 Q 316.57 234.78 316.79 234.31 Q 316.96 233.95 316.96 233.27 L 316.96 232.88 Z  M 319.65 236 L 319.65 229.78 L 320.61 229.78 L 320.61 230.72 Q 320.97 230.06 321.26 229.86 Q 321.58 229.64 321.95 229.64 Q 322.48 229.64 323.03 229.97 L 322.67 230.95 Q 322.28 230.72 321.9 230.72 Q 321.54 230.72 321.26 230.94 Q 321 231.14 320.89 231.52 Q 320.7 232.08 320.7 232.73 L 320.7 236 L 319.65 236 Z  M 323.62 238.39 L 323.49 237.41 Q 323.84 237.5 324.1 237.5 Q 324.45 237.5 324.65 237.38 Q 324.87 237.27 325.01 237.06 Q 325.1 236.89 325.34 236.27 Q 325.35 236.19 325.43 236.02 L 323.06 229.78 L 324.2 229.78 L 325.49 233.38 Q 325.74 234.06 325.95 234.83 Q 326.13 234.09 326.38 233.41 L 327.71 229.78 L 328.76 229.78 L 326.4 236.11 Q 326.01 237.12 325.81 237.52 Q 325.53 238.05 325.15 238.28 Q 324.79 238.53 324.29 238.53 Q 323.99 238.53 323.62 238.39 Z "/></g><g style="fill: rgb(0,0,0); fill-opacity: 1.0; stroke: none" clip-path="url(#_8954082573000clip-0)"><path d="M 276.42 252 L 274.14 243.41 L 275.31 243.41 L 276.62 249.05 Q 276.83 249.92 276.98 250.8 Q 277.31 249.42 277.38 249.2 L 279 243.41 L 280.38 243.41 L 281.61 247.75 Q 282.06 249.38 282.28 250.8 Q 282.44 249.98 282.7 248.92 L 284.05 243.41 L 285.19 243.41 L 282.84 252 L 281.73 252 L 279.94 245.45 Q 279.7 244.64 279.66 244.45 Q 279.53 245.03 279.41 245.45 L 277.59 252 L 276.42 252 Z  M 287.75 252 L 285.47 243.41 L 286.64 243.41 L 287.95 249.05 Q 288.15 249.92 288.31 250.8 Q 288.64 249.42 288.7 249.2 L 290.33 243.41 L 291.7 243.41 L 292.94 247.75 Q 293.39 249.38 293.61 250.8 Q 293.76 249.98 294.03 248.92 L 295.37 243.41 L 296.51 243.41 L 294.17 252 L 293.06 252 L 291.26 245.45 Q 291.03 244.64 290.98 244.45 Q 290.86 245.03 290.73 245.45 L 288.92 252 L 287.75 252 Z  M 299.76 252 L 299.76 244.42 L 296.93 244.42 L 296.93 243.41 L 303.75 243.41 L 303.75 244.42 L 300.9 244.42 L 300.9 252 L 299.76 252 Z  M 310.13 254.53 Q 309.25 253.42 308.64 251.95 Q 308.05 250.47 308.05 248.89 Q 308.05 247.5 308.49 246.22 Q 309.02 244.73 310.13 243.27 L 310.88 243.27 Q 310.18 244.48 309.94 245 Q 309.58 245.81 309.38 246.69 Q 309.13 247.78 309.13 248.89 Q 309.13 251.72 310.88 254.53 L 310.13 254.53 Z  M 312.02 245.47 Q 312.02 244.55 312.47 243.91 Q 312.94 243.27 313.81 243.27 Q 314.62 243.27 315.16 243.84 Q 315.69 244.42 315.69 245.53 Q 315.69 246.62 315.14 247.22 Q 314.61 247.8 313.83 247.8 Q 313.05 247.8 312.53 247.22 Q 312.02 246.64 312.02 245.47 Z  M 313.84 243.98 Q 313.45 243.98 313.19 244.33 Q 312.94 244.67 312.94 245.58 Q 312.94 246.41 313.19 246.75 Q 313.45 247.08 313.84 247.08 Q 314.25 247.08 314.5 246.73 Q 314.77 246.39 314.77 245.5 Q 314.77 244.66 314.5 244.33 Q 314.23 243.98 313.84 243.98 Z  M 313.84 252.31 L 318.55 243.27 L 319.41 243.27 L 314.72 252.31 L 313.84 252.31 Z  M 317.56 249.98 Q 317.56 249.06 318.02 248.42 Q 318.48 247.78 319.38 247.78 Q 320.19 247.78 320.72 248.36 Q 321.25 248.92 321.25 250.05 Q 321.25 251.14 320.7 251.73 Q 320.17 252.31 319.38 252.31 Q 318.61 252.31 318.08 251.73 Q 317.56 251.16 317.56 249.98 Z  M 319.41 248.5 Q 319 248.5 318.73 248.84 Q 318.48 249.19 318.48 250.09 Q 318.48 250.91 318.75 251.25 Q 319.02 251.59 319.41 251.59 Q 319.8 251.59 320.06 251.25 Q 320.33 250.91 320.33 250 Q 320.33 249.17 320.06 248.84 Q 319.8 248.5 319.41 248.5 Z  M 323.47 254.53 L 322.72 254.53 Q 324.47 251.72 324.47 248.89 Q 324.47 247.8 324.22 246.7 Q 324.01 245.83 323.65 245.02 Q 323.42 244.5 322.72 243.27 L 323.47 243.27 Q 324.56 244.73 325.09 246.22 Q 325.54 247.5 325.54 248.89 Q 325.54 250.47 324.94 251.95 Q 324.33 253.42 323.47 254.53 Z "/></g><ellipse cx="180" cy="240" rx="50" ry="30" style="fill: rgb(192,255,128); fill-opacity: 1.0" clip-path="url(#_8954082573000clip-0)"/><ellipse cx="180" cy="240" rx="46" ry="26" style="stroke-width: 8.0;stroke: rgb(192,192,192);stroke-opacity: 1.0;stroke-linecap: round;stroke-linejoin: round;; fill: none" clip-path="url(#_8954082573000clip-0)"/><ellipse cx="180" cy="240" rx="50" ry="30" style="stroke-width: 1.0;stroke: rgb(0,0,0);stroke-opacity: 1.0;stroke-linecap: round;stroke-linejoin: round;; fill: none" clip-path="url(#_8954082573000clip-0)"/><g style="fill: rgb(0,0,0); fill-opacity: 1.0; stroke: none" clip-path="url(#_8954082573000clip-0)"><path d="M 160.42 236 L 160.42 227.41 L 163.67 227.41 Q 164.52 227.41 164.97 227.48 Q 165.61 227.59 166.03 227.89 Q 166.47 228.19 166.72 228.72 Q 166.98 229.25 166.98 229.89 Q 166.98 230.98 166.28 231.75 Q 165.59 232.5 163.77 232.5 L 161.56 232.5 L 161.56 236 L 160.42 236 Z  M 161.56 231.5 L 163.78 231.5 Q 164.89 231.5 165.34 231.09 Q 165.81 230.67 165.81 229.92 Q 165.81 229.39 165.53 229.02 Q 165.27 228.62 164.83 228.5 Q 164.53 228.42 163.77 228.42 L 161.56 228.42 L 161.56 231.5 Z  M 168.29 236 L 168.29 229.78 L 169.24 229.78 L 169.24 230.72 Q 169.6 230.06 169.89 229.86 Q 170.21 229.64 170.58 229.64 Q 171.11 229.64 171.66 229.97 L 171.3 230.95 Q 170.91 230.72 170.54 230.72 Q 170.18 230.72 169.89 230.94 Q 169.63 231.14 169.52 231.52 Q 169.33 232.08 169.33 232.73 L 169.33 236 L 168.29 236 Z  M 172.3 228.62 L 172.3 227.41 L 173.36 227.41 L 173.36 228.62 L 172.3 228.62 Z  M 172.3 236 L 172.3 229.78 L 173.36 229.78 L 173.36 236 L 172.3 236 Z  M 174.96 236 L 174.96 229.78 L 175.9 229.78 L 175.9 230.66 Q 176.2 230.19 176.68 229.92 Q 177.17 229.64 177.79 229.64 Q 178.48 229.64 178.92 229.92 Q 179.37 230.2 179.54 230.72 Q 180.29 229.64 181.46 229.64 Q 182.4 229.64 182.88 230.16 Q 183.38 230.66 183.38 231.73 L 183.38 236 L 182.34 236 L 182.34 232.08 Q 182.34 231.45 182.23 231.17 Q 182.13 230.89 181.87 230.72 Q 181.6 230.55 181.23 230.55 Q 180.57 230.55 180.13 230.98 Q 179.71 231.42 179.71 232.39 L 179.71 236 L 178.65 236 L 178.65 231.95 Q 178.65 231.25 178.38 230.91 Q 178.13 230.55 177.56 230.55 Q 177.1 230.55 176.73 230.78 Q 176.35 231.02 176.18 231.47 Q 176.01 231.92 176.01 232.77 L 176.01 236 L 174.96 236 Z  M 189.02 235.23 Q 188.43 235.73 187.88 235.94 Q 187.35 236.14 186.72 236.14 Q 185.69 236.14 185.15 235.64 Q 184.6 235.14 184.6 234.36 Q 184.6 233.91 184.8 233.53 Q 185.01 233.14 185.35 232.92 Q 185.69 232.69 186.12 232.58 Q 186.41 232.48 187.05 232.41 Q 188.32 232.27 188.93 232.05 Q 188.93 231.83 188.93 231.78 Q 188.93 231.12 188.63 230.86 Q 188.22 230.52 187.43 230.52 Q 186.69 230.52 186.33 230.78 Q 185.97 231.03 185.8 231.69 L 184.77 231.55 Q 184.91 230.89 185.24 230.48 Q 185.57 230.08 186.18 229.86 Q 186.79 229.64 187.58 229.64 Q 188.38 229.64 188.88 229.83 Q 189.38 230.02 189.62 230.3 Q 189.85 230.58 189.94 231.02 Q 189.99 231.28 189.99 231.98 L 189.99 233.39 Q 189.99 234.86 190.05 235.25 Q 190.13 235.64 190.33 236 L 189.22 236 Q 189.07 235.67 189.02 235.23 Z  M 188.93 232.88 Q 188.35 233.11 187.21 233.28 Q 186.55 233.38 186.29 233.5 Q 186.02 233.61 185.87 233.83 Q 185.72 234.05 185.72 234.33 Q 185.72 234.75 186.04 235.03 Q 186.37 235.31 186.97 235.31 Q 187.58 235.31 188.05 235.05 Q 188.54 234.78 188.76 234.31 Q 188.93 233.95 188.93 233.27 L 188.93 232.88 Z  M 191.62 236 L 191.62 229.78 L 192.57 229.78 L 192.57 230.72 Q 192.93 230.06 193.23 229.86 Q 193.54 229.64 193.91 229.64 Q 194.45 229.64 194.99 229.97 L 194.63 230.95 Q 194.24 230.72 193.87 230.72 Q 193.51 230.72 193.23 230.94 Q 192.96 231.14 192.85 231.52 Q 192.66 232.08 192.66 232.73 L 192.66 236 L 191.62 236 Z  M 195.58 238.39 L 195.46 237.41 Q 195.8 237.5 196.07 237.5 Q 196.41 237.5 196.61 237.38 Q 196.83 237.27 196.97 237.06 Q 197.07 236.89 197.3 236.27 Q 197.32 236.19 197.39 236.02 L 195.02 229.78 L 196.16 229.78 L 197.46 233.38 Q 197.71 234.06 197.91 234.83 Q 198.1 234.09 198.35 233.41 L 199.68 229.78 L 200.72 229.78 L 198.36 236.11 Q 197.97 237.12 197.77 237.52 Q 197.49 238.05 197.11 238.28 Q 196.75 238.53 196.25 238.53 Q 195.96 238.53 195.58 238.39 Z "/></g><g style="fill: rgb(0,0,0); fill-opacity: 1.0; stroke: none" clip-path="url(#_8954082573000clip-0)"><path d="M 156.42 252 L 154.14 243.41 L 155.31 243.41 L 156.62 249.05 Q 156.83 249.92 156.98 250.8 Q 157.31 249.42 157.38 249.2 L 159 243.41 L 160.38 243.41 L 161.61 247.75 Q 162.06 249.38 162.28 250.8 Q 162.44 249.98 162.7 248.92 L 164.05 243.41 L 165.19 243.41 L 162.84 252 L 161.73 252 L 159.94 245.45 Q 159.7 244.64 159.66 244.45 Q 159.53 245.03 159.41 245.45 L 157.59 252 L 156.42 252 Z  M 167.75 252 L 165.47 243.41 L 166.64 243.41 L 167.95 249.05 Q 168.15 249.92 168.31 250.8 Q 168.64 249.42 168.7 249.2 L 170.33 243.41 L 171.7 243.41 L 172.94 247.75 Q 173.39 249.38 173.61 250.8 Q 173.76 249.98 174.03 248.92 L 175.37 243.41 L 176.51 243.41 L 174.17 252 L 173.06 252 L 171.26 245.45 Q 171.03 244.64 170.98 244.45 Q 170.86 245.03 170.73 245.45 L 168.92 252 L 167.75 252 Z  M 179.76 252 L 179.76 244.42 L 176.93 244.42 L 176.93 243.41 L 183.75 243.41 L 183.75 244.42 L 180.9 244.42 L 180.9 252 L 179.76 252 Z  M 190.13 254.53 Q 189.25 253.42 188.64 251.95 Q 188.05 250.47 188.05 248.89 Q 188.05 247.5 188.49 246.22 Q 189.02 244.73 190.13 243.27 L 190.88 243.27 Q 190.18 244.48 189.94 245 Q 189.58 245.81 189.38 246.69 Q 189.13 247.78 189.13 248.89 Q 189.13 251.72 190.88 254.53 L 190.13 254.53 Z  M 192.02 245.47 Q 192.02 244.55 192.47 243.91 Q 192.94 243.27 193.81 243.27 Q 194.62 243.27 195.16 243.84 Q 195.69 244.42 195.69 245.53 Q 195.69 246.62 195.14 247.22 Q 194.61 247.8 193.83 247.8 Q 193.05 247.8 192.53 247.22 Q 192.02 246.64 192.02 245.47 Z  M 193.84 243.98 Q 193.45 243.98 193.19 244.33 Q 192.94 244.67 192.94 245.58 Q 192.94 246.41 193.19 246.75 Q 193.45 247.08 193.84 247.08 Q 194.25 247.08 194.5 246.73 Q 194.77 246.39 194.77 245.5 Q 194.77 244.66 194.5 244.33 Q 194.23 243.98 193.84 243.98 Z  M 193.84 252.31 L 198.55 243.27 L 199.41 243.27 L 194.72 252.31 L 193.84 252.31 Z  M 197.56 249.98 Q 197.56 249.06 198.02 248.42 Q 198.48 247.78 199.38 247.78 Q 200.19 247.78 200.72 248.36 Q 201.25 248.92 201.25 250.05 Q 201.25 251.14 200.7 251.73 Q 200.17 252.31 199.38 252.31 Q 198.61 252.31 198.08 251.73 Q 197.56 251.16 197.56 249.98 Z  M 199.41 248.5 Q 199 248.5 198.73 248.84 Q 198.48 249.19 198.48 250.09 Q 198.48 250.91 198.75 251.25 Q 199.02 251.59 199.41 251.59 Q 199.8 251.59 200.06 251.25 Q 200.33 250.91 200.33 250 Q 200.33 249.17 200.06 248.84 Q 199.8 248.5 199.41 248.5 Z  M 203.47 254.53 L 202.72 254.53 Q 204.47 251.72 204.47 248.89 Q 204.47 247.8 204.22 246.7 Q 204.01 245.83 203.65 245.02 Q 203.42 244.5 202.72 243.27 L 203.47 243.27 Q 204.56 244.73 205.09 246.22 Q 205.54 247.5 205.54 248.89 Q 205.54 250.47 204.94 251.95 Q 204.33 253.42 203.47 254.53 Z "/></g><ellipse cx="60" cy="240" rx="50" ry="30" style="fill: rgb(192,255,128); fill-opacity: 1.0" clip-path="url(#_8954082573000clip-0)"/><ellipse cx="60" cy="240" rx="46" ry="26" style="stroke-width: 8.0;stroke: rgb(192,192,192);stroke-opacity: 1.0;stroke-linecap: round;stroke-linejoin: round;; fill: none" clip-path="url(#_8954082573000clip-0)"/><ellipse cx="60" cy="240" rx="50" ry="30" style="stroke-width: 1.0;stroke: rgb(0,0,0);stroke-opacity: 1.0;stroke-linecap: round;stroke-linejoin: round;; fill: none" clip-path="url(#_8954082573000clip-0)"/><g style="fill: rgb(0,0,0); fill-opacity: 1.0; stroke: none" clip-path="url(#_8954082573000clip-0)"><path d="M 36.42 236 L 36.42 227.41 L 37.58 227.41 L 42.09 234.16 L 42.09 227.41 L 43.19 227.41 L 43.19 236 L 42.02 236 L 37.5 229.25 L 37.5 236 L 36.42 236 Z  M 44.57 232.89 Q 44.57 231.16 45.53 230.33 Q 46.32 229.64 47.48 229.64 Q 48.76 229.64 49.57 230.48 Q 50.4 231.31 50.4 232.8 Q 50.4 234 50.04 234.69 Q 49.68 235.38 48.98 235.77 Q 48.29 236.14 47.48 236.14 Q 46.18 236.14 45.37 235.31 Q 44.57 234.47 44.57 232.89 Z  M 45.65 232.89 Q 45.65 234.08 46.17 234.67 Q 46.7 235.27 47.48 235.27 Q 48.28 235.27 48.79 234.67 Q 49.31 234.08 49.31 232.86 Q 49.31 231.7 48.78 231.11 Q 48.26 230.52 47.48 230.52 Q 46.7 230.52 46.17 231.11 Q 45.65 231.69 45.65 232.89 Z  M 56.6 236 L 54.31 227.41 L 55.49 227.41 L 56.8 233.05 Q 57 233.92 57.16 234.8 Q 57.49 233.42 57.55 233.2 L 59.17 227.41 L 60.55 227.41 L 61.78 231.75 Q 62.24 233.38 62.46 234.8 Q 62.61 233.98 62.88 232.92 L 64.22 227.41 L 65.36 227.41 L 63.02 236 L 61.91 236 L 60.11 229.45 Q 59.88 228.64 59.83 228.45 Q 59.71 229.03 59.58 229.45 L 57.77 236 L 56.6 236 Z  M 67.92 236 L 65.64 227.41 L 66.81 227.41 L 68.12 233.05 Q 68.33 233.92 68.48 234.8 Q 68.81 233.42 68.88 233.2 L 70.5 227.41 L 71.88 227.41 L 73.11 231.75 Q 73.56 233.38 73.78 234.8 Q 73.94 233.98 74.2 232.92 L 75.55 227.41 L 76.69 227.41 L 74.34 236 L 73.23 236 L 71.44 229.45 Q 71.2 228.64 71.16 228.45 Q 71.03 229.03 70.91 229.45 L 69.09 236 L 67.92 236 Z  M 79.94 236 L 79.94 228.42 L 77.11 228.42 L 77.11 227.41 L 83.92 227.41 L 83.92 228.42 L 81.08 228.42 L 81.08 236 L 79.94 236 Z "/></g><g style="fill: rgb(0,0,0); fill-opacity: 1.0; stroke: none" clip-path="url(#_8954082573000clip-0)"><path d="M 53.31 254.53 Q 52.44 253.42 51.83 251.95 Q 51.23 250.47 51.23 248.89 Q 51.23 247.5 51.67 246.22 Q 52.2 244.73 53.31 243.27 L 54.06 243.27 Q 53.36 244.48 53.12 245 Q 52.77 245.81 52.56 246.69 Q 52.31 247.78 52.31 248.89 Q 52.31 251.72 54.06 254.53 L 53.31 254.53 Z  M 55.2 245.47 Q 55.2 244.55 55.65 243.91 Q 56.12 243.27 57 243.27 Q 57.81 243.27 58.34 243.84 Q 58.87 244.42 58.87 245.53 Q 58.87 246.62 58.32 247.22 Q 57.79 247.8 57.01 247.8 Q 56.23 247.8 55.71 247.22 Q 55.2 246.64 55.2 245.47 Z  M 57.03 243.98 Q 56.64 243.98 56.37 244.33 Q 56.12 244.67 56.12 245.58 Q 56.12 246.41 56.37 246.75 Q 56.64 247.08 57.03 247.08 Q 57.43 247.08 57.68 246.73 Q 57.95 246.39 57.95 245.5 Q 57.95 244.66 57.68 244.33 Q 57.42 243.98 57.03 243.98 Z  M 57.03 252.31 L 61.73 243.27 L 62.59 243.27 L 57.9 252.31 L 57.03 252.31 Z  M 60.75 249.98 Q 60.75 249.06 61.2 248.42 Q 61.67 247.78 62.56 247.78 Q 63.37 247.78 63.9 248.36 Q 64.43 248.92 64.43 250.05 Q 64.43 251.14 63.89 251.73 Q 63.36 252.31 62.56 252.31 Q 61.79 252.31 61.26 251.73 Q 60.75 251.16 60.75 249.98 Z  M 62.59 248.5 Q 62.18 248.5 61.92 248.84 Q 61.67 249.19 61.67 250.09 Q 61.67 250.91 61.93 251.25 Q 62.2 251.59 62.59 251.59 Q 62.98 251.59 63.25 251.25 Q 63.51 250.91 63.51 250 Q 63.51 249.17 63.25 248.84 Q 62.98 248.5 62.59 248.5 Z  M 66.65 254.53 L 65.9 254.53 Q 67.65 251.72 67.65 248.89 Q 67.65 247.8 67.4 246.7 Q 67.2 245.83 66.84 245.02 Q 66.6 244.5 65.9 243.27 L 66.65 243.27 Q 67.74 244.73 68.28 246.22 Q 68.73 247.5 68.73 248.89 Q 68.73 250.47 68.12 251.95 Q 67.51 253.42 66.65 254.53 Z "/></g><ellipse cx="236" cy="54" rx="50" ry="30" style="fill: rgb(192,255,128); fill-opacity: 1.0" clip-path="url(#_8954082573000clip-0)"/><ellipse cx="236" cy="54" rx="46" ry="26" style="stroke-width: 8.0;stroke: rgb(192,192,192);stroke-opacity: 1.0;stroke-linecap: round;stroke-linejoin: round;; fill: none" clip-path="url(#_8954082573000clip-0)"/><ellipse cx="236" cy="54" rx="50" ry="30" style="stroke-width: 1.0;stroke: rgb(0,0,0);stroke-opacity: 1.0;stroke-linejoin: bevel;stroke-dasharray: 6.0, 6.0;; fill: none" clip-path="url(#_8954082573000clip-0)"/><g style="fill: rgb(0,0,0); fill-opacity: 1.0; stroke: none" clip-path="url(#_8954082573000clip-0)"><path d="M 197.92 58 L 195.64 49.41 L 196.81 49.41 L 198.12 55.05 Q 198.33 55.92 198.48 56.8 Q 198.81 55.42 198.88 55.2 L 200.5 49.41 L 201.88 49.41 L 203.11 53.75 Q 203.56 55.38 203.78 56.8 Q 203.94 55.98 204.2 54.92 L 205.55 49.41 L 206.69 49.41 L 204.34 58 L 203.23 58 L 201.44 51.45 Q 201.2 50.64 201.16 50.45 Q 201.03 51.03 200.91 51.45 L 199.09 58 L 197.92 58 Z  M 209.25 58 L 206.97 49.41 L 208.14 49.41 L 209.45 55.05 Q 209.65 55.92 209.81 56.8 Q 210.14 55.42 210.2 55.2 L 211.83 49.41 L 213.2 49.41 L 214.44 53.75 Q 214.89 55.38 215.11 56.8 Q 215.26 55.98 215.53 54.92 L 216.87 49.41 L 218.01 49.41 L 215.67 58 L 214.56 58 L 212.76 51.45 Q 212.53 50.64 212.48 50.45 Q 212.36 51.03 212.23 51.45 L 210.42 58 L 209.25 58 Z  M 221.26 58 L 221.26 50.42 L 218.43 50.42 L 218.43 49.41 L 225.25 49.41 L 225.25 50.42 L 222.4 50.42 L 222.4 58 L 221.26 58 Z  M 229.36 55.23 L 230.43 55.14 Q 230.5 55.8 230.79 56.2 Q 231.07 56.61 231.64 56.88 Q 232.24 57.12 232.97 57.12 Q 233.61 57.12 234.11 56.94 Q 234.61 56.73 234.85 56.41 Q 235.1 56.06 235.1 55.67 Q 235.1 55.27 234.86 54.97 Q 234.63 54.66 234.1 54.45 Q 233.74 54.31 232.55 54.03 Q 231.38 53.75 230.91 53.5 Q 230.29 53.17 229.99 52.7 Q 229.69 52.22 229.69 51.62 Q 229.69 50.98 230.05 50.42 Q 230.43 49.84 231.13 49.56 Q 231.85 49.27 232.71 49.27 Q 233.66 49.27 234.39 49.58 Q 235.13 49.88 235.52 50.48 Q 235.91 51.08 235.94 51.83 L 234.85 51.91 Q 234.75 51.09 234.24 50.69 Q 233.74 50.27 232.75 50.27 Q 231.72 50.27 231.25 50.64 Q 230.79 51.02 230.79 51.55 Q 230.79 52.02 231.11 52.31 Q 231.44 52.61 232.82 52.92 Q 234.21 53.23 234.72 53.47 Q 235.47 53.83 235.83 54.36 Q 236.19 54.88 236.19 55.58 Q 236.19 56.27 235.8 56.88 Q 235.41 57.47 234.68 57.81 Q 233.94 58.14 233.02 58.14 Q 231.85 58.14 231.05 57.81 Q 230.27 57.47 229.82 56.78 Q 229.38 56.09 229.36 55.23 Z  M 241.68 55.72 L 242.71 55.86 Q 242.54 56.92 241.84 57.53 Q 241.13 58.14 240.12 58.14 Q 238.84 58.14 238.05 57.31 Q 237.29 56.47 237.29 54.91 Q 237.29 53.91 237.62 53.16 Q 237.96 52.39 238.63 52.02 Q 239.32 51.64 240.13 51.64 Q 241.13 51.64 241.77 52.16 Q 242.43 52.66 242.62 53.61 L 241.59 53.77 Q 241.45 53.14 241.07 52.83 Q 240.7 52.5 240.16 52.5 Q 239.37 52.5 238.87 53.08 Q 238.37 53.64 238.37 54.88 Q 238.37 56.14 238.85 56.7 Q 239.34 57.27 240.1 57.27 Q 240.73 57.27 241.13 56.89 Q 241.55 56.52 241.68 55.72 Z  M 247.87 56 L 248.96 56.12 Q 248.71 57.08 248.01 57.61 Q 247.3 58.14 246.23 58.14 Q 244.87 58.14 244.05 57.3 Q 243.26 56.45 243.26 54.94 Q 243.26 53.38 244.07 52.52 Q 244.88 51.64 246.16 51.64 Q 247.41 51.64 248.2 52.48 Q 248.99 53.33 248.99 54.88 Q 248.99 54.97 248.99 55.16 L 244.35 55.16 Q 244.41 56.19 244.93 56.73 Q 245.45 57.27 246.23 57.27 Q 246.8 57.27 247.21 56.97 Q 247.63 56.66 247.87 56 Z  M 244.41 54.3 L 247.88 54.3 Q 247.82 53.5 247.49 53.11 Q 246.98 52.5 246.18 52.5 Q 245.45 52.5 244.95 52.98 Q 244.46 53.47 244.41 54.3 Z  M 250.29 58 L 250.29 51.78 L 251.23 51.78 L 251.23 52.66 Q 251.92 51.64 253.21 51.64 Q 253.78 51.64 254.24 51.84 Q 254.73 52.05 254.96 52.38 Q 255.2 52.7 255.29 53.14 Q 255.34 53.44 255.34 54.17 L 255.34 58 L 254.29 58 L 254.29 54.22 Q 254.29 53.56 254.17 53.25 Q 254.04 52.94 253.73 52.75 Q 253.42 52.55 252.99 52.55 Q 252.32 52.55 251.82 52.98 Q 251.34 53.41 251.34 54.59 L 251.34 58 L 250.29 58 Z  M 261.03 57.23 Q 260.43 57.73 259.89 57.94 Q 259.36 58.14 258.73 58.14 Q 257.7 58.14 257.15 57.64 Q 256.61 57.14 256.61 56.36 Q 256.61 55.91 256.81 55.53 Q 257.01 55.14 257.36 54.92 Q 257.7 54.69 258.12 54.58 Q 258.42 54.48 259.06 54.41 Q 260.32 54.27 260.93 54.05 Q 260.93 53.83 260.93 53.78 Q 260.93 53.12 260.64 52.86 Q 260.23 52.52 259.43 52.52 Q 258.7 52.52 258.34 52.78 Q 257.98 53.03 257.81 53.69 L 256.78 53.55 Q 256.92 52.89 257.25 52.48 Q 257.57 52.08 258.18 51.86 Q 258.79 51.64 259.59 51.64 Q 260.39 51.64 260.89 51.83 Q 261.39 52.02 261.62 52.3 Q 261.86 52.58 261.95 53.02 Q 262 53.28 262 53.98 L 262 55.39 Q 262 56.86 262.06 57.25 Q 262.14 57.64 262.34 58 L 261.23 58 Q 261.07 57.67 261.03 57.23 Z  M 260.93 54.88 Q 260.36 55.11 259.21 55.28 Q 258.56 55.38 258.29 55.5 Q 258.03 55.61 257.87 55.83 Q 257.73 56.05 257.73 56.33 Q 257.73 56.75 258.04 57.03 Q 258.37 57.31 258.98 57.31 Q 259.59 57.31 260.06 57.05 Q 260.54 56.78 260.76 56.31 Q 260.93 55.95 260.93 55.27 L 260.93 54.88 Z  M 263.62 58 L 263.62 51.78 L 264.58 51.78 L 264.58 52.72 Q 264.94 52.06 265.23 51.86 Q 265.54 51.64 265.92 51.64 Q 266.45 51.64 267 51.97 L 266.64 52.95 Q 266.25 52.72 265.87 52.72 Q 265.51 52.72 265.23 52.94 Q 264.97 53.14 264.86 53.52 Q 264.67 54.08 264.67 54.73 L 264.67 58 L 263.62 58 Z  M 267.63 50.62 L 267.63 49.41 L 268.7 49.41 L 268.7 50.62 L 267.63 50.62 Z  M 267.63 58 L 267.63 51.78 L 268.7 51.78 L 268.7 58 L 267.63 58 Z  M 269.91 54.89 Q 269.91 53.16 270.86 52.33 Q 271.66 51.64 272.82 51.64 Q 274.1 51.64 274.91 52.48 Q 275.74 53.31 275.74 54.8 Q 275.74 56 275.38 56.69 Q 275.02 57.38 274.32 57.77 Q 273.63 58.14 272.82 58.14 Q 271.52 58.14 270.71 57.31 Q 269.91 56.47 269.91 54.89 Z  M 270.99 54.89 Q 270.99 56.08 271.5 56.67 Q 272.04 57.27 272.82 57.27 Q 273.61 57.27 274.13 56.67 Q 274.64 56.08 274.64 54.86 Q 274.64 53.7 274.11 53.11 Q 273.6 52.52 272.82 52.52 Q 272.04 52.52 271.5 53.11 Q 270.99 53.69 270.99 54.89 Z "/></g><ellipse cx="380" cy="54" rx="50" ry="30" style="fill: rgb(192,255,128); fill-opacity: 1.0" clip-path="url(#_8954082573000clip-0)"/><ellipse cx="380" cy="54" rx="46" ry="26" style="stroke-width: 8.0;stroke: rgb(192,192,192);stroke-opacity: 1.0;stroke-linecap: round;stroke-linejoin: round;; fill: none" clip-path="url(#_8954082573000clip-0)"/><ellipse cx="380" cy="54" rx="50" ry="30" style="stroke-width: 1.0;stroke: rgb(0,0,0);stroke-opacity: 1.0;stroke-linejoin: bevel;stroke-dasharray: 6.0, 6.0;; fill: none" clip-path="url(#_8954082573000clip-0)"/><g style="fill: rgb(0,0,0); fill-opacity: 1.0; stroke: none" clip-path="url(#_8954082573000clip-0)"><path d="M 370.84 58 L 370.84 54.36 L 367.53 49.41 L 368.92 49.41 L 370.61 52 Q 371.08 52.72 371.48 53.45 Q 371.88 52.78 372.42 51.94 L 374.09 49.41 L 375.41 49.41 L 371.98 54.36 L 371.98 58 L 370.84 58 Z  M 380.55 56 L 381.64 56.12 Q 381.39 57.08 380.69 57.61 Q 379.99 58.14 378.91 58.14 Q 377.55 58.14 376.74 57.3 Q 375.94 56.45 375.94 54.94 Q 375.94 53.38 376.75 52.52 Q 377.57 51.64 378.85 51.64 Q 380.1 51.64 380.88 52.48 Q 381.68 53.33 381.68 54.88 Q 381.68 54.97 381.68 55.16 L 377.04 55.16 Q 377.1 56.19 377.61 56.73 Q 378.13 57.27 378.91 57.27 Q 379.49 57.27 379.89 56.97 Q 380.32 56.66 380.55 56 Z  M 377.1 54.3 L 380.57 54.3 Q 380.5 53.5 380.18 53.11 Q 379.66 52.5 378.86 52.5 Q 378.13 52.5 377.63 52.98 Q 377.14 53.47 377.1 54.3 Z  M 387.04 57.23 Q 386.44 57.73 385.9 57.94 Q 385.37 58.14 384.74 58.14 Q 383.71 58.14 383.16 57.64 Q 382.62 57.14 382.62 56.36 Q 382.62 55.91 382.82 55.53 Q 383.02 55.14 383.37 54.92 Q 383.71 54.69 384.13 54.58 Q 384.43 54.48 385.07 54.41 Q 386.33 54.27 386.94 54.05 Q 386.94 53.83 386.94 53.78 Q 386.94 53.12 386.65 52.86 Q 386.24 52.52 385.44 52.52 Q 384.71 52.52 384.35 52.78 Q 383.99 53.03 383.82 53.69 L 382.79 53.55 Q 382.93 52.89 383.26 52.48 Q 383.58 52.08 384.19 51.86 Q 384.8 51.64 385.6 51.64 Q 386.4 51.64 386.9 51.83 Q 387.4 52.02 387.63 52.3 Q 387.87 52.58 387.96 53.02 Q 388.01 53.28 388.01 53.98 L 388.01 55.39 Q 388.01 56.86 388.07 57.25 Q 388.15 57.64 388.35 58 L 387.24 58 Q 387.08 57.67 387.04 57.23 Z  M 386.94 54.88 Q 386.37 55.11 385.22 55.28 Q 384.57 55.38 384.3 55.5 Q 384.04 55.61 383.88 55.83 Q 383.74 56.05 383.74 56.33 Q 383.74 56.75 384.05 57.03 Q 384.38 57.31 384.99 57.31 Q 385.6 57.31 386.07 57.05 Q 386.55 56.78 386.77 56.31 Q 386.94 55.95 386.94 55.27 L 386.94 54.88 Z  M 389.63 58 L 389.63 51.78 L 390.59 51.78 L 390.59 52.72 Q 390.95 52.06 391.24 51.86 Q 391.55 51.64 391.93 51.64 Q 392.46 51.64 393.01 51.97 L 392.65 52.95 Q 392.26 52.72 391.88 52.72 Q 391.52 52.72 391.24 52.94 Q 390.98 53.14 390.87 53.52 Q 390.68 54.08 390.68 54.73 L 390.68 58 L 389.63 58 Z "/></g><ellipse cx="620" cy="40" rx="50" ry="30" style="fill: rgb(192,255,128); fill-opacity: 1.0" clip-path="url(#_8954082573000clip-0)"/><ellipse cx="620" cy="40" rx="46" ry="26" style="stroke-width: 8.0;stroke: rgb(192,192,192);stroke-opacity: 1.0;stroke-linecap: round;stroke-linejoin: round;; fill: none" clip-path="url(#_8954082573000clip-0)"/><ellipse cx="620" cy="40" rx="50" ry="30" style="stroke-width: 1.0;stroke: rgb(0,0,0);stroke-opacity: 1.0;stroke-linejoin: bevel;stroke-dasharray: 6.0, 6.0;; fill: none" clip-path="url(#_8954082573000clip-0)"/><g style="fill: rgb(0,0,0); fill-opacity: 1.0; stroke: none" clip-path="url(#_8954082573000clip-0)"><path d="M 608.06 40.98 L 609.19 41.28 Q 608.83 42.67 607.91 43.41 Q 606.98 44.14 605.64 44.14 Q 604.25 44.14 603.38 43.58 Q 602.5 43.02 602.05 41.95 Q 601.59 40.88 601.59 39.64 Q 601.59 38.3 602.11 37.3 Q 602.62 36.3 603.56 35.78 Q 604.52 35.27 605.66 35.27 Q 606.94 35.27 607.81 35.92 Q 608.7 36.58 609.05 37.77 L 607.92 38.03 Q 607.62 37.09 607.05 36.67 Q 606.48 36.23 605.62 36.23 Q 604.64 36.23 603.97 36.72 Q 603.31 37.19 603.03 37.98 Q 602.77 38.78 602.77 39.64 Q 602.77 40.73 603.08 41.55 Q 603.41 42.36 604.08 42.77 Q 604.75 43.17 605.55 43.17 Q 606.5 43.17 607.16 42.62 Q 607.83 42.08 608.06 40.98 Z  M 610.07 40.89 Q 610.07 39.16 611.03 38.33 Q 611.82 37.64 612.98 37.64 Q 614.26 37.64 615.07 38.48 Q 615.9 39.31 615.9 40.8 Q 615.9 42 615.54 42.69 Q 615.18 43.38 614.48 43.77 Q 613.79 44.14 612.98 44.14 Q 611.68 44.14 610.87 43.31 Q 610.07 42.47 610.07 40.89 Z  M 611.15 40.89 Q 611.15 42.08 611.67 42.67 Q 612.2 43.27 612.98 43.27 Q 613.78 43.27 614.29 42.67 Q 614.81 42.08 614.81 40.86 Q 614.81 39.7 614.28 39.11 Q 613.76 38.52 612.98 38.52 Q 612.2 38.52 611.67 39.11 Q 611.15 39.69 611.15 40.89 Z  M 621.21 44 L 621.21 43.08 Q 620.48 44.14 619.23 44.14 Q 618.68 44.14 618.2 43.94 Q 617.73 43.72 617.5 43.41 Q 617.26 43.08 617.17 42.61 Q 617.11 42.31 617.11 41.62 L 617.11 37.78 L 618.17 37.78 L 618.17 41.23 Q 618.17 42.05 618.23 42.34 Q 618.32 42.75 618.64 43 Q 618.96 43.23 619.45 43.23 Q 619.92 43.23 620.32 43 Q 620.75 42.75 620.92 42.33 Q 621.11 41.91 621.11 41.11 L 621.11 37.78 L 622.15 37.78 L 622.15 44 L 621.21 44 Z  M 623.81 44 L 623.81 37.78 L 624.75 37.78 L 624.75 38.66 Q 625.44 37.64 626.73 37.64 Q 627.29 37.64 627.76 37.84 Q 628.25 38.05 628.48 38.38 Q 628.72 38.7 628.81 39.14 Q 628.86 39.44 628.86 40.17 L 628.86 44 L 627.81 44 L 627.81 40.22 Q 627.81 39.56 627.69 39.25 Q 627.56 38.94 627.25 38.75 Q 626.94 38.55 626.51 38.55 Q 625.84 38.55 625.34 38.98 Q 624.86 39.41 624.86 40.59 L 624.86 44 L 623.81 44 Z  M 632.78 43.06 L 632.94 43.98 Q 632.48 44.08 632.14 44.08 Q 631.56 44.08 631.25 43.91 Q 630.94 43.72 630.8 43.42 Q 630.67 43.12 630.67 42.17 L 630.67 38.59 L 629.91 38.59 L 629.91 37.78 L 630.67 37.78 L 630.67 36.23 L 631.72 35.61 L 631.72 37.78 L 632.78 37.78 L 632.78 38.59 L 631.72 38.59 L 631.72 42.23 Q 631.72 42.69 631.77 42.81 Q 631.83 42.94 631.95 43.02 Q 632.08 43.09 632.31 43.09 Q 632.5 43.09 632.78 43.06 Z  M 633.77 46.39 L 633.65 45.41 Q 633.99 45.5 634.26 45.5 Q 634.6 45.5 634.8 45.38 Q 635.02 45.27 635.16 45.06 Q 635.26 44.89 635.49 44.27 Q 635.51 44.19 635.58 44.02 L 633.21 37.78 L 634.35 37.78 L 635.65 41.38 Q 635.9 42.06 636.1 42.83 Q 636.29 42.09 636.54 41.41 L 637.87 37.78 L 638.91 37.78 L 636.55 44.11 Q 636.16 45.12 635.96 45.52 Q 635.68 46.05 635.3 46.28 Q 634.94 46.53 634.44 46.53 Q 634.15 46.53 633.77 46.39 Z "/></g><ellipse cx="620" cy="160" rx="50" ry="30" style="fill: rgb(192,255,128); fill-opacity: 1.0" clip-path="url(#_8954082573000clip-0)"/><ellipse cx="620" cy="160" rx="50" ry="30" style="stroke-width: 1.0;stroke: rgb(0,0,0);stroke-opacity: 1.0;stroke-linecap: round;stroke-linejoin: round;; fill: none" clip-path="url(#_8954082573000clip-0)"/><g style="fill: rgb(0,0,0); fill-opacity: 1.0; stroke: none" clip-path="url(#_8954082573000clip-0)"><path d="M 590.92 156 L 588.64 147.41 L 589.81 147.41 L 591.12 153.05 Q 591.33 153.92 591.48 154.8 Q 591.81 153.42 591.88 153.2 L 593.5 147.41 L 594.88 147.41 L 596.11 151.75 Q 596.56 153.38 596.78 154.8 Q 596.94 153.98 597.2 152.92 L 598.55 147.41 L 599.69 147.41 L 597.34 156 L 596.23 156 L 594.44 149.45 Q 594.2 148.64 594.16 148.45 Q 594.03 149.03 593.91 149.45 L 592.09 156 L 590.92 156 Z  M 604.69 155.23 Q 604.09 155.73 603.54 155.94 Q 603.01 156.14 602.39 156.14 Q 601.36 156.14 600.81 155.64 Q 600.26 155.14 600.26 154.36 Q 600.26 153.91 600.47 153.53 Q 600.67 153.14 601.01 152.92 Q 601.36 152.69 601.78 152.58 Q 602.08 152.48 602.72 152.41 Q 603.98 152.27 604.59 152.05 Q 604.59 151.83 604.59 151.78 Q 604.59 151.12 604.29 150.86 Q 603.89 150.52 603.09 150.52 Q 602.36 150.52 602 150.78 Q 601.64 151.03 601.47 151.69 L 600.44 151.55 Q 600.58 150.89 600.9 150.48 Q 601.23 150.08 601.84 149.86 Q 602.45 149.64 603.25 149.64 Q 604.04 149.64 604.54 149.83 Q 605.04 150.02 605.28 150.3 Q 605.51 150.58 605.61 151.02 Q 605.65 151.28 605.65 151.98 L 605.65 153.39 Q 605.65 154.86 605.72 155.25 Q 605.79 155.64 606 156 L 604.89 156 Q 604.73 155.67 604.69 155.23 Z  M 604.59 152.88 Q 604.01 153.11 602.87 153.28 Q 602.22 153.38 601.95 153.5 Q 601.69 153.61 601.53 153.83 Q 601.39 154.05 601.39 154.33 Q 601.39 154.75 601.7 155.03 Q 602.03 155.31 602.64 155.31 Q 603.25 155.31 603.72 155.05 Q 604.2 154.78 604.42 154.31 Q 604.59 153.95 604.59 153.27 L 604.59 152.88 Z  M 606.88 154.14 L 607.91 153.98 Q 608 154.61 608.39 154.94 Q 608.8 155.27 609.53 155.27 Q 610.25 155.27 610.59 154.98 Q 610.95 154.69 610.95 154.28 Q 610.95 153.92 610.64 153.72 Q 610.42 153.58 609.56 153.36 Q 608.41 153.06 607.95 152.86 Q 607.52 152.64 607.28 152.27 Q 607.05 151.89 607.05 151.42 Q 607.05 151.02 607.23 150.66 Q 607.42 150.3 607.75 150.06 Q 608 149.89 608.42 149.77 Q 608.84 149.64 609.34 149.64 Q 610.06 149.64 610.61 149.86 Q 611.17 150.06 611.44 150.42 Q 611.7 150.78 611.8 151.38 L 610.77 151.52 Q 610.7 151.05 610.36 150.78 Q 610.03 150.5 609.41 150.5 Q 608.69 150.5 608.38 150.75 Q 608.06 150.98 608.06 151.31 Q 608.06 151.52 608.19 151.67 Q 608.33 151.84 608.59 151.95 Q 608.75 152.02 609.53 152.22 Q 610.66 152.53 611.09 152.72 Q 611.53 152.91 611.78 153.27 Q 612.03 153.62 612.03 154.17 Q 612.03 154.7 611.72 155.17 Q 611.42 155.62 610.84 155.89 Q 610.27 156.14 609.53 156.14 Q 608.31 156.14 607.67 155.64 Q 607.05 155.12 606.88 154.14 Z  M 615.59 155.06 L 615.75 155.98 Q 615.3 156.08 614.95 156.08 Q 614.38 156.08 614.06 155.91 Q 613.75 155.72 613.61 155.42 Q 613.48 155.12 613.48 154.17 L 613.48 150.59 L 612.72 150.59 L 612.72 149.78 L 613.48 149.78 L 613.48 148.23 L 614.53 147.61 L 614.53 149.78 L 615.59 149.78 L 615.59 150.59 L 614.53 150.59 L 614.53 154.23 Q 614.53 154.69 614.58 154.81 Q 614.64 154.94 614.77 155.02 Q 614.89 155.09 615.12 155.09 Q 615.31 155.09 615.59 155.06 Z  M 620.88 154 L 621.97 154.12 Q 621.72 155.08 621.02 155.61 Q 620.32 156.14 619.24 156.14 Q 617.88 156.14 617.07 155.3 Q 616.27 154.45 616.27 152.94 Q 616.27 151.38 617.08 150.52 Q 617.9 149.64 619.18 149.64 Q 620.43 149.64 621.21 150.48 Q 622.01 151.33 622.01 152.88 Q 622.01 152.97 622.01 153.16 L 617.37 153.16 Q 617.43 154.19 617.94 154.73 Q 618.46 155.27 619.24 155.27 Q 619.82 155.27 620.22 154.97 Q 620.65 154.66 620.88 154 Z  M 617.43 152.3 L 620.9 152.3 Q 620.83 151.5 620.51 151.11 Q 619.99 150.5 619.19 150.5 Q 618.46 150.5 617.96 150.98 Q 617.47 151.47 617.43 152.3 Z  M 624.45 156 L 622.54 149.78 L 623.63 149.78 L 624.62 153.38 L 624.99 154.7 Q 625.02 154.61 625.32 153.42 L 626.3 149.78 L 627.38 149.78 L 628.32 153.39 L 628.63 154.58 L 628.99 153.38 L 630.05 149.78 L 631.09 149.78 L 629.13 156 L 628.04 156 L 627.05 152.27 L 626.8 151.22 L 625.55 156 L 624.45 156 Z  M 636.03 155.23 Q 635.44 155.73 634.89 155.94 Q 634.36 156.14 633.74 156.14 Q 632.71 156.14 632.16 155.64 Q 631.61 155.14 631.61 154.36 Q 631.61 153.91 631.81 153.53 Q 632.02 153.14 632.36 152.92 Q 632.71 152.69 633.13 152.58 Q 633.42 152.48 634.06 152.41 Q 635.33 152.27 635.94 152.05 Q 635.94 151.83 635.94 151.78 Q 635.94 151.12 635.64 150.86 Q 635.24 150.52 634.44 150.52 Q 633.71 150.52 633.35 150.78 Q 632.99 151.03 632.81 151.69 L 631.78 151.55 Q 631.92 150.89 632.25 150.48 Q 632.58 150.08 633.19 149.86 Q 633.8 149.64 634.6 149.64 Q 635.39 149.64 635.89 149.83 Q 636.39 150.02 636.63 150.3 Q 636.86 150.58 636.96 151.02 Q 637 151.28 637 151.98 L 637 153.39 Q 637 154.86 637.06 155.25 Q 637.14 155.64 637.35 156 L 636.24 156 Q 636.08 155.67 636.03 155.23 Z  M 635.94 152.88 Q 635.36 153.11 634.22 153.28 Q 633.56 153.38 633.3 153.5 Q 633.03 153.61 632.88 153.83 Q 632.74 154.05 632.74 154.33 Q 632.74 154.75 633.05 155.03 Q 633.38 155.31 633.99 155.31 Q 634.6 155.31 635.06 155.05 Q 635.55 154.78 635.77 154.31 Q 635.94 153.95 635.94 153.27 L 635.94 152.88 Z  M 640.94 155.06 L 641.1 155.98 Q 640.64 156.08 640.3 156.08 Q 639.72 156.08 639.41 155.91 Q 639.1 155.72 638.96 155.42 Q 638.83 155.12 638.83 154.17 L 638.83 150.59 L 638.07 150.59 L 638.07 149.78 L 638.83 149.78 L 638.83 148.23 L 639.88 147.61 L 639.88 149.78 L 640.94 149.78 L 640.94 150.59 L 639.88 150.59 L 639.88 154.23 Q 639.88 154.69 639.93 154.81 Q 639.99 154.94 640.11 155.02 Q 640.24 155.09 640.47 155.09 Q 640.66 155.09 640.94 155.06 Z  M 646.23 154 L 647.32 154.12 Q 647.07 155.08 646.37 155.61 Q 645.67 156.14 644.59 156.14 Q 643.23 156.14 642.42 155.3 Q 641.62 154.45 641.62 152.94 Q 641.62 151.38 642.43 150.52 Q 643.24 149.64 644.53 149.64 Q 645.78 149.64 646.56 150.48 Q 647.35 151.33 647.35 152.88 Q 647.35 152.97 647.35 153.16 L 642.71 153.16 Q 642.78 154.19 643.29 154.73 Q 643.81 155.27 644.59 155.27 Q 645.17 155.27 645.57 154.97 Q 645.99 154.66 646.23 154 Z  M 642.78 152.3 L 646.24 152.3 Q 646.18 151.5 645.85 151.11 Q 645.34 150.5 644.54 150.5 Q 643.81 150.5 643.31 150.98 Q 642.82 151.47 642.78 152.3 Z  M 648.64 156 L 648.64 149.78 L 649.59 149.78 L 649.59 150.72 Q 649.95 150.06 650.25 149.86 Q 650.56 149.64 650.93 149.64 Q 651.46 149.64 652.01 149.97 L 651.65 150.95 Q 651.26 150.72 650.89 150.72 Q 650.53 150.72 650.25 150.94 Q 649.98 151.14 649.87 151.52 Q 649.68 152.08 649.68 152.73 L 649.68 156 L 648.64 156 Z "/></g><g style="fill: rgb(0,0,0); fill-opacity: 1.0; stroke: none" clip-path="url(#_8954082573000clip-0)"><path d="M 584.31 174.53 Q 583.44 173.42 582.83 171.95 Q 582.23 170.47 582.23 168.89 Q 582.23 167.5 582.67 166.22 Q 583.2 164.73 584.31 163.27 L 585.06 163.27 Q 584.36 164.48 584.12 165 Q 583.77 165.81 583.56 166.69 Q 583.31 167.78 583.31 168.89 Q 583.31 171.72 585.06 174.53 L 584.31 174.53 Z  M 586.37 172 L 586.37 163.41 L 587.51 163.41 L 587.51 170.98 L 591.75 170.98 L 591.75 172 L 586.37 172 Z  M 592.17 172.14 L 594.65 163.27 L 595.5 163.27 L 593.01 172.14 L 592.17 172.14 Z  M 596.3 174.39 L 596.3 165.78 L 597.25 165.78 L 597.25 166.58 Q 597.6 166.11 598.02 165.88 Q 598.46 165.64 599.07 165.64 Q 599.86 165.64 600.47 166.05 Q 601.08 166.45 601.38 167.2 Q 601.69 167.95 601.69 168.84 Q 601.69 169.8 601.35 170.56 Q 601.02 171.33 600.36 171.73 Q 599.71 172.14 598.99 172.14 Q 598.46 172.14 598.04 171.92 Q 597.61 171.69 597.35 171.36 L 597.35 174.39 L 596.3 174.39 Z  M 597.25 168.92 Q 597.25 170.12 597.74 170.7 Q 598.22 171.27 598.91 171.27 Q 599.61 171.27 600.11 170.67 Q 600.61 170.08 600.61 168.83 Q 600.61 167.64 600.13 167.06 Q 599.64 166.47 598.96 166.47 Q 598.29 166.47 597.77 167.09 Q 597.25 167.72 597.25 168.92 Z  M 607.22 170 L 608.32 170.12 Q 608.07 171.08 607.37 171.61 Q 606.66 172.14 605.58 172.14 Q 604.22 172.14 603.41 171.3 Q 602.62 170.45 602.62 168.94 Q 602.62 167.38 603.43 166.52 Q 604.24 165.64 605.52 165.64 Q 606.77 165.64 607.55 166.48 Q 608.35 167.33 608.35 168.88 Q 608.35 168.97 608.35 169.16 L 603.71 169.16 Q 603.77 170.19 604.29 170.73 Q 604.8 171.27 605.58 171.27 Q 606.16 171.27 606.57 170.97 Q 606.99 170.66 607.22 170 Z  M 603.77 168.3 L 607.24 168.3 Q 607.18 167.5 606.85 167.11 Q 606.33 166.5 605.54 166.5 Q 604.8 166.5 604.3 166.98 Q 603.82 167.47 603.77 168.3 Z  M 609.63 172 L 609.63 165.78 L 610.59 165.78 L 610.59 166.72 Q 610.95 166.06 611.24 165.86 Q 611.55 165.64 611.93 165.64 Q 612.46 165.64 613.01 165.97 L 612.65 166.95 Q 612.26 166.72 611.88 166.72 Q 611.52 166.72 611.24 166.94 Q 610.98 167.14 610.87 167.52 Q 610.68 168.08 610.68 168.73 L 610.68 172 L 609.63 172 Z  M 613.22 170.14 L 614.25 169.98 Q 614.35 170.61 614.74 170.94 Q 615.14 171.27 615.88 171.27 Q 616.6 171.27 616.94 170.98 Q 617.3 170.69 617.3 170.28 Q 617.3 169.92 616.99 169.72 Q 616.77 169.58 615.91 169.36 Q 614.75 169.06 614.3 168.86 Q 613.86 168.64 613.63 168.27 Q 613.39 167.89 613.39 167.42 Q 613.39 167.02 613.58 166.66 Q 613.77 166.3 614.1 166.06 Q 614.35 165.89 614.77 165.77 Q 615.19 165.64 615.69 165.64 Q 616.41 165.64 616.96 165.86 Q 617.52 166.06 617.79 166.42 Q 618.05 166.78 618.14 167.38 L 617.11 167.52 Q 617.05 167.05 616.71 166.78 Q 616.38 166.5 615.75 166.5 Q 615.04 166.5 614.72 166.75 Q 614.41 166.98 614.41 167.31 Q 614.41 167.52 614.54 167.67 Q 614.68 167.84 614.94 167.95 Q 615.1 168.02 615.88 168.22 Q 617 168.53 617.44 168.72 Q 617.88 168.91 618.13 169.27 Q 618.38 169.62 618.38 170.17 Q 618.38 170.7 618.07 171.17 Q 617.77 171.62 617.19 171.89 Q 616.61 172.14 615.88 172.14 Q 614.66 172.14 614.02 171.64 Q 613.39 171.12 613.22 170.14 Z  M 619.25 168.89 Q 619.25 167.16 620.21 166.33 Q 621 165.64 622.16 165.64 Q 623.44 165.64 624.25 166.48 Q 625.08 167.31 625.08 168.8 Q 625.08 170 624.72 170.69 Q 624.36 171.38 623.66 171.77 Q 622.97 172.14 622.16 172.14 Q 620.86 172.14 620.05 171.31 Q 619.25 170.47 619.25 168.89 Z  M 620.33 168.89 Q 620.33 170.08 620.85 170.67 Q 621.38 171.27 622.16 171.27 Q 622.96 171.27 623.47 170.67 Q 623.99 170.08 623.99 168.86 Q 623.99 167.7 623.46 167.11 Q 622.94 166.52 622.16 166.52 Q 621.38 166.52 620.85 167.11 Q 620.33 167.69 620.33 168.89 Z  M 626.32 172 L 626.32 165.78 L 627.26 165.78 L 627.26 166.66 Q 627.94 165.64 629.24 165.64 Q 629.8 165.64 630.27 165.84 Q 630.76 166.05 630.99 166.38 Q 631.22 166.7 631.32 167.14 Q 631.37 167.44 631.37 168.17 L 631.37 172 L 630.32 172 L 630.32 168.22 Q 630.32 167.56 630.19 167.25 Q 630.07 166.94 629.76 166.75 Q 629.44 166.55 629.02 166.55 Q 628.35 166.55 627.85 166.98 Q 627.37 167.41 627.37 168.59 L 627.37 172 L 626.32 172 Z  M 632.2 172.14 L 634.68 163.27 L 635.52 163.27 L 633.04 172.14 L 632.2 172.14 Z  M 640.36 172 L 640.36 171.22 Q 639.76 172.14 638.62 172.14 Q 637.87 172.14 637.25 171.73 Q 636.62 171.31 636.28 170.58 Q 635.94 169.84 635.94 168.89 Q 635.94 167.97 636.25 167.2 Q 636.56 166.44 637.19 166.05 Q 637.81 165.64 638.58 165.64 Q 639.14 165.64 639.58 165.88 Q 640.01 166.11 640.29 166.48 L 640.29 163.41 L 641.34 163.41 L 641.34 172 L 640.36 172 Z  M 637.03 168.89 Q 637.03 170.09 637.53 170.69 Q 638.03 171.27 638.72 171.27 Q 639.4 171.27 639.89 170.7 Q 640.37 170.14 640.37 168.98 Q 640.37 167.7 639.87 167.11 Q 639.39 166.52 638.67 166.52 Q 637.97 166.52 637.5 167.09 Q 637.03 167.66 637.03 168.89 Z  M 647.06 171.23 Q 646.47 171.73 645.92 171.94 Q 645.39 172.14 644.77 172.14 Q 643.73 172.14 643.19 171.64 Q 642.64 171.14 642.64 170.36 Q 642.64 169.91 642.84 169.53 Q 643.05 169.14 643.39 168.92 Q 643.73 168.69 644.16 168.58 Q 644.45 168.48 645.09 168.41 Q 646.36 168.27 646.97 168.05 Q 646.97 167.83 646.97 167.78 Q 646.97 167.12 646.67 166.86 Q 646.27 166.52 645.47 166.52 Q 644.73 166.52 644.38 166.78 Q 644.02 167.03 643.84 167.69 L 642.81 167.55 Q 642.95 166.89 643.28 166.48 Q 643.61 166.08 644.22 165.86 Q 644.83 165.64 645.62 165.64 Q 646.42 165.64 646.92 165.83 Q 647.42 166.02 647.66 166.3 Q 647.89 166.58 647.98 167.02 Q 648.03 167.28 648.03 167.98 L 648.03 169.39 Q 648.03 170.86 648.09 171.25 Q 648.17 171.64 648.38 172 L 647.27 172 Q 647.11 171.67 647.06 171.23 Z  M 646.97 168.88 Q 646.39 169.11 645.25 169.28 Q 644.59 169.38 644.33 169.5 Q 644.06 169.61 643.91 169.83 Q 643.77 170.05 643.77 170.33 Q 643.77 170.75 644.08 171.03 Q 644.41 171.31 645.02 171.31 Q 645.62 171.31 646.09 171.05 Q 646.58 170.78 646.8 170.31 Q 646.97 169.95 646.97 169.27 L 646.97 168.88 Z  M 649.63 174.39 L 649.5 173.41 Q 649.85 173.5 650.11 173.5 Q 650.46 173.5 650.66 173.38 Q 650.88 173.27 651.02 173.06 Q 651.11 172.89 651.35 172.27 Q 651.36 172.19 651.44 172.02 L 649.06 165.78 L 650.21 165.78 L 651.5 169.38 Q 651.75 170.06 651.96 170.83 Q 652.14 170.09 652.39 169.41 L 653.72 165.78 L 654.77 165.78 L 652.41 172.11 Q 652.02 173.12 651.81 173.52 Q 651.53 174.05 651.16 174.28 Q 650.8 174.53 650.3 174.53 Q 650 174.53 649.63 174.39 Z  M 656.36 174.53 L 655.61 174.53 Q 657.36 171.72 657.36 168.89 Q 657.36 167.8 657.11 166.7 Q 656.91 165.83 656.55 165.02 Q 656.31 164.5 655.61 163.27 L 656.36 163.27 Q 657.46 164.73 657.99 166.22 Q 658.44 167.5 658.44 168.89 Q 658.44 170.47 657.83 171.95 Q 657.22 173.42 656.36 174.53 Z "/></g><ellipse cx="940" cy="160" rx="50" ry="30" style="fill: rgb(192,255,128); fill-opacity: 1.0" clip-path="url(#_8954082573000clip-0)"/><ellipse cx="940" cy="160" rx="46" ry="26" style="stroke-width: 8.0;stroke: rgb(192,192,192);stroke-opacity: 1.0;stroke-linecap: round;stroke-linejoin: round;; fill: none" clip-path="url(#_8954082573000clip-0)"/><ellipse cx="940" cy="160" rx="50" ry="30" style="stroke-width: 1.0;stroke: rgb(0,0,0);stroke-opacity: 1.0;stroke-linejoin: bevel;stroke-dasharray: 6.0, 6.0;; fill: none" clip-path="url(#_8954082573000clip-0)"/><g style="fill: rgb(0,0,0); fill-opacity: 1.0; stroke: none" clip-path="url(#_8954082573000clip-0)"><path d="M 904.42 156 L 904.42 147.41 L 907.67 147.41 Q 908.52 147.41 908.97 147.48 Q 909.61 147.59 910.03 147.89 Q 910.47 148.19 910.72 148.72 Q 910.98 149.25 910.98 149.89 Q 910.98 150.98 910.28 151.75 Q 909.59 152.5 907.77 152.5 L 905.56 152.5 L 905.56 156 L 904.42 156 Z  M 905.56 151.5 L 907.78 151.5 Q 908.89 151.5 909.34 151.09 Q 909.81 150.67 909.81 149.92 Q 909.81 149.39 909.53 149.02 Q 909.27 148.62 908.83 148.5 Q 908.53 148.42 907.77 148.42 L 905.56 148.42 L 905.56 151.5 Z  M 911.91 152.89 Q 911.91 151.16 912.86 150.33 Q 913.66 149.64 914.82 149.64 Q 916.1 149.64 916.91 150.48 Q 917.74 151.31 917.74 152.8 Q 917.74 154 917.38 154.69 Q 917.02 155.38 916.32 155.77 Q 915.63 156.14 914.82 156.14 Q 913.52 156.14 912.71 155.31 Q 911.91 154.47 911.91 152.89 Z  M 912.99 152.89 Q 912.99 154.08 913.5 154.67 Q 914.04 155.27 914.82 155.27 Q 915.61 155.27 916.13 154.67 Q 916.64 154.08 916.64 152.86 Q 916.64 151.7 916.11 151.11 Q 915.6 150.52 914.82 150.52 Q 914.04 150.52 913.5 151.11 Q 912.99 151.69 912.99 152.89 Z  M 918.97 158.39 L 918.97 149.78 L 919.93 149.78 L 919.93 150.58 Q 920.27 150.11 920.69 149.88 Q 921.13 149.64 921.74 149.64 Q 922.54 149.64 923.15 150.05 Q 923.76 150.45 924.05 151.2 Q 924.37 151.95 924.37 152.84 Q 924.37 153.8 924.02 154.56 Q 923.69 155.33 923.04 155.73 Q 922.38 156.14 921.66 156.14 Q 921.13 156.14 920.71 155.92 Q 920.29 155.69 920.02 155.36 L 920.02 158.39 L 918.97 158.39 Z  M 919.93 152.92 Q 919.93 154.12 920.41 154.7 Q 920.9 155.27 921.58 155.27 Q 922.29 155.27 922.79 154.67 Q 923.29 154.08 923.29 152.83 Q 923.29 151.64 922.8 151.06 Q 922.32 150.47 921.63 150.47 Q 920.96 150.47 920.44 151.09 Q 919.93 151.72 919.93 152.92 Z  M 929.73 156 L 929.73 155.08 Q 928.99 156.14 927.74 156.14 Q 927.2 156.14 926.71 155.94 Q 926.24 155.72 926.01 155.41 Q 925.77 155.08 925.68 154.61 Q 925.62 154.31 925.62 153.62 L 925.62 149.78 L 926.68 149.78 L 926.68 153.23 Q 926.68 154.05 926.74 154.34 Q 926.84 154.75 927.15 155 Q 927.48 155.23 927.96 155.23 Q 928.43 155.23 928.84 155 Q 929.26 154.75 929.43 154.33 Q 929.62 153.91 929.62 153.11 L 929.62 149.78 L 930.66 149.78 L 930.66 156 L 929.73 156 Z  M 932.29 156 L 932.29 147.41 L 933.35 147.41 L 933.35 156 L 932.29 156 Z  M 939.05 155.23 Q 938.46 155.73 937.91 155.94 Q 937.38 156.14 936.75 156.14 Q 935.72 156.14 935.18 155.64 Q 934.63 155.14 934.63 154.36 Q 934.63 153.91 934.83 153.53 Q 935.04 153.14 935.38 152.92 Q 935.72 152.69 936.14 152.58 Q 936.44 152.48 937.08 152.41 Q 938.35 152.27 938.96 152.05 Q 938.96 151.83 938.96 151.78 Q 938.96 151.12 938.66 150.86 Q 938.25 150.52 937.46 150.52 Q 936.72 150.52 936.36 150.78 Q 936 151.03 935.83 151.69 L 934.8 151.55 Q 934.94 150.89 935.27 150.48 Q 935.6 150.08 936.21 149.86 Q 936.82 149.64 937.61 149.64 Q 938.41 149.64 938.91 149.83 Q 939.41 150.02 939.64 150.3 Q 939.88 150.58 939.97 151.02 Q 940.02 151.28 940.02 151.98 L 940.02 153.39 Q 940.02 154.86 940.08 155.25 Q 940.16 155.64 940.36 156 L 939.25 156 Q 939.1 155.67 939.05 155.23 Z  M 938.96 152.88 Q 938.38 153.11 937.24 153.28 Q 936.58 153.38 936.32 153.5 Q 936.05 153.61 935.89 153.83 Q 935.75 154.05 935.75 154.33 Q 935.75 154.75 936.07 155.03 Q 936.39 155.31 937 155.31 Q 937.61 155.31 938.08 155.05 Q 938.57 154.78 938.79 154.31 Q 938.96 153.95 938.96 153.27 L 938.96 152.88 Z  M 943.96 155.06 L 944.12 155.98 Q 943.66 156.08 943.32 156.08 Q 942.74 156.08 942.43 155.91 Q 942.12 155.72 941.97 155.42 Q 941.85 155.12 941.85 154.17 L 941.85 150.59 L 941.08 150.59 L 941.08 149.78 L 941.85 149.78 L 941.85 148.23 L 942.9 147.61 L 942.9 149.78 L 943.96 149.78 L 943.96 150.59 L 942.9 150.59 L 942.9 154.23 Q 942.9 154.69 942.94 154.81 Q 943.01 154.94 943.13 155.02 Q 943.26 155.09 943.49 155.09 Q 943.68 155.09 943.96 155.06 Z  M 945 148.62 L 945 147.41 L 946.06 147.41 L 946.06 148.62 L 945 148.62 Z  M 945 156 L 945 149.78 L 946.06 149.78 L 946.06 156 L 945 156 Z  M 947.27 152.89 Q 947.27 151.16 948.22 150.33 Q 949.02 149.64 950.18 149.64 Q 951.46 149.64 952.27 150.48 Q 953.1 151.31 953.1 152.8 Q 953.1 154 952.74 154.69 Q 952.38 155.38 951.68 155.77 Q 950.99 156.14 950.18 156.14 Q 948.88 156.14 948.07 155.31 Q 947.27 154.47 947.27 152.89 Z  M 948.35 152.89 Q 948.35 154.08 948.87 154.67 Q 949.4 155.27 950.18 155.27 Q 950.97 155.27 951.49 154.67 Q 952.01 154.08 952.01 152.86 Q 952.01 151.7 951.47 151.11 Q 950.96 150.52 950.18 150.52 Q 949.4 150.52 948.87 151.11 Q 948.35 151.69 948.35 152.89 Z  M 954.34 156 L 954.34 149.78 L 955.27 149.78 L 955.27 150.66 Q 955.96 149.64 957.26 149.64 Q 957.82 149.64 958.29 149.84 Q 958.77 150.05 959.01 150.38 Q 959.24 150.7 959.34 151.14 Q 959.38 151.44 959.38 152.17 L 959.38 156 L 958.34 156 L 958.34 152.22 Q 958.34 151.56 958.21 151.25 Q 958.09 150.94 957.77 150.75 Q 957.46 150.55 957.04 150.55 Q 956.37 150.55 955.87 150.98 Q 955.38 151.41 955.38 152.59 L 955.38 156 L 954.34 156 Z  M 963.95 152.89 Q 963.95 151.16 964.91 150.33 Q 965.7 149.64 966.86 149.64 Q 968.14 149.64 968.95 150.48 Q 969.78 151.31 969.78 152.8 Q 969.78 154 969.42 154.69 Q 969.06 155.38 968.36 155.77 Q 967.67 156.14 966.86 156.14 Q 965.56 156.14 964.75 155.31 Q 963.95 154.47 963.95 152.89 Z  M 965.03 152.89 Q 965.03 154.08 965.55 154.67 Q 966.08 155.27 966.86 155.27 Q 967.66 155.27 968.17 154.67 Q 968.69 154.08 968.69 152.86 Q 968.69 151.7 968.16 151.11 Q 967.64 150.52 966.86 150.52 Q 966.08 150.52 965.55 151.11 Q 965.03 151.69 965.03 152.89 Z  M 971.27 156 L 971.27 150.59 L 970.33 150.59 L 970.33 149.78 L 971.27 149.78 L 971.27 149.11 Q 971.27 148.48 971.38 148.19 Q 971.53 147.77 971.91 147.52 Q 972.3 147.27 972.99 147.27 Q 973.44 147.27 973.97 147.38 L 973.81 148.28 Q 973.49 148.23 973.19 148.23 Q 972.71 148.23 972.5 148.44 Q 972.31 148.64 972.31 149.2 L 972.31 149.78 L 973.53 149.78 L 973.53 150.59 L 972.31 150.59 L 972.31 156 L 971.27 156 Z "/></g><g style="fill: rgb(0,0,0); fill-opacity: 1.0; stroke: none" clip-path="url(#_8954082573000clip-0)"><path d="M 907.42 172 L 907.42 163.41 L 908.58 163.41 L 913.09 170.16 L 913.09 163.41 L 914.19 163.41 L 914.19 172 L 913.02 172 L 908.5 165.25 L 908.5 172 L 907.42 172 Z  M 915.57 168.89 Q 915.57 167.16 916.53 166.33 Q 917.32 165.64 918.48 165.64 Q 919.76 165.64 920.57 166.48 Q 921.4 167.31 921.4 168.8 Q 921.4 170 921.04 170.69 Q 920.68 171.38 919.98 171.77 Q 919.29 172.14 918.48 172.14 Q 917.18 172.14 916.37 171.31 Q 915.57 170.47 915.57 168.89 Z  M 916.65 168.89 Q 916.65 170.08 917.17 170.67 Q 917.7 171.27 918.48 171.27 Q 919.28 171.27 919.79 170.67 Q 920.31 170.08 920.31 168.86 Q 920.31 167.7 919.78 167.11 Q 919.26 166.52 918.48 166.52 Q 917.7 166.52 917.17 167.11 Q 916.65 167.69 916.65 168.89 Z  M 922.62 172 L 922.62 165.78 L 923.57 165.78 L 923.57 166.72 Q 923.93 166.06 924.23 165.86 Q 924.54 165.64 924.92 165.64 Q 925.45 165.64 926 165.97 L 925.64 166.95 Q 925.25 166.72 924.87 166.72 Q 924.51 166.72 924.23 166.94 Q 923.96 167.14 923.86 167.52 Q 923.67 168.08 923.67 168.73 L 923.67 172 L 922.62 172 Z  M 927.77 172 L 925.87 165.78 L 926.96 165.78 L 927.95 169.38 L 928.32 170.7 Q 928.35 170.61 928.65 169.42 L 929.63 165.78 L 930.71 165.78 L 931.65 169.39 L 931.96 170.58 L 932.32 169.38 L 933.38 165.78 L 934.41 165.78 L 932.46 172 L 931.37 172 L 930.38 168.27 L 930.13 167.22 L 928.88 172 L 927.77 172 Z  M 939.36 171.23 Q 938.77 171.73 938.22 171.94 Q 937.69 172.14 937.06 172.14 Q 936.03 172.14 935.49 171.64 Q 934.94 171.14 934.94 170.36 Q 934.94 169.91 935.14 169.53 Q 935.35 169.14 935.69 168.92 Q 936.03 168.69 936.46 168.58 Q 936.75 168.48 937.39 168.41 Q 938.66 168.27 939.27 168.05 Q 939.27 167.83 939.27 167.78 Q 939.27 167.12 938.97 166.86 Q 938.56 166.52 937.77 166.52 Q 937.03 166.52 936.67 166.78 Q 936.31 167.03 936.14 167.69 L 935.11 167.55 Q 935.25 166.89 935.58 166.48 Q 935.91 166.08 936.52 165.86 Q 937.13 165.64 937.92 165.64 Q 938.72 165.64 939.22 165.83 Q 939.72 166.02 939.96 166.3 Q 940.19 166.58 940.28 167.02 Q 940.33 167.28 940.33 167.98 L 940.33 169.39 Q 940.33 170.86 940.39 171.25 Q 940.47 171.64 940.67 172 L 939.56 172 Q 939.41 171.67 939.36 171.23 Z  M 939.27 168.88 Q 938.69 169.11 937.55 169.28 Q 936.89 169.38 936.63 169.5 Q 936.36 169.61 936.21 169.83 Q 936.06 170.05 936.06 170.33 Q 936.06 170.75 936.38 171.03 Q 936.71 171.31 937.31 171.31 Q 937.92 171.31 938.39 171.05 Q 938.88 170.78 939.1 170.31 Q 939.27 169.95 939.27 169.27 L 939.27 168.88 Z  M 941.93 174.39 L 941.8 173.41 Q 942.14 173.5 942.41 173.5 Q 942.75 173.5 942.96 173.38 Q 943.18 173.27 943.32 173.06 Q 943.41 172.89 943.64 172.27 Q 943.66 172.19 943.74 172.02 L 941.36 165.78 L 942.5 165.78 L 943.8 169.38 Q 944.05 170.06 944.25 170.83 Q 944.44 170.09 944.69 169.41 L 946.02 165.78 L 947.07 165.78 L 944.71 172.11 Q 944.32 173.12 944.11 173.52 Q 943.83 174.05 943.46 174.28 Q 943.1 174.53 942.6 174.53 Q 942.3 174.53 941.93 174.39 Z  M 953.32 174.53 Q 952.45 173.42 951.84 171.95 Q 951.24 170.47 951.24 168.89 Q 951.24 167.5 951.68 166.22 Q 952.21 164.73 953.32 163.27 L 954.07 163.27 Q 953.37 164.48 953.13 165 Q 952.78 165.81 952.57 166.69 Q 952.32 167.78 952.32 168.89 Q 952.32 171.72 954.07 174.53 L 953.32 174.53 Z  M 955.3 172 L 955.3 165.78 L 956.24 165.78 L 956.24 166.66 Q 956.54 166.19 957.02 165.92 Q 957.51 165.64 958.13 165.64 Q 958.82 165.64 959.26 165.92 Q 959.71 166.2 959.88 166.72 Q 960.63 165.64 961.8 165.64 Q 962.74 165.64 963.22 166.16 Q 963.72 166.66 963.72 167.73 L 963.72 172 L 962.68 172 L 962.68 168.08 Q 962.68 167.45 962.57 167.17 Q 962.47 166.89 962.21 166.72 Q 961.94 166.55 961.57 166.55 Q 960.91 166.55 960.47 166.98 Q 960.05 167.42 960.05 168.39 L 960.05 172 L 958.99 172 L 958.99 167.95 Q 958.99 167.25 958.72 166.91 Q 958.47 166.55 957.9 166.55 Q 957.44 166.55 957.07 166.78 Q 956.69 167.02 956.52 167.47 Q 956.35 167.92 956.35 168.77 L 956.35 172 L 955.3 172 Z  M 965.3 164.62 L 965.3 163.41 L 966.36 163.41 L 966.36 164.62 L 965.3 164.62 Z  M 965.3 172 L 965.3 165.78 L 966.36 165.78 L 966.36 172 L 965.3 172 Z  M 967.93 172 L 967.93 163.41 L 969 163.41 L 969 172 L 967.93 172 Z  M 971.32 174.53 L 970.57 174.53 Q 972.32 171.72 972.32 168.89 Q 972.32 167.8 972.07 166.7 Q 971.87 165.83 971.51 165.02 Q 971.27 164.5 970.57 163.27 L 971.32 163.27 Q 972.41 164.73 972.94 166.22 Q 973.4 167.5 973.4 168.89 Q 973.4 170.47 972.79 171.95 Q 972.18 173.42 971.32 174.53 Z "/></g><ellipse cx="780" cy="160" rx="50" ry="30" style="fill: rgb(192,255,128); fill-opacity: 1.0" clip-path="url(#_8954082573000clip-0)"/><ellipse cx="780" cy="160" rx="46" ry="26" style="stroke-width: 8.0;stroke: rgb(192,192,192);stroke-opacity: 1.0;stroke-linecap: round;stroke-linejoin: round;; fill: none" clip-path="url(#_8954082573000clip-0)"/><ellipse cx="780" cy="160" rx="50" ry="30" style="stroke-width: 1.0;stroke: rgb(0,0,0);stroke-opacity: 1.0;stroke-linecap: round;stroke-linejoin: round;; fill: none" clip-path="url(#_8954082573000clip-0)"/><g style="fill: rgb(0,0,0); fill-opacity: 1.0; stroke: none" clip-path="url(#_8954082573000clip-0)"><path d="M 755.56 152.98 L 756.69 153.28 Q 756.33 154.67 755.41 155.41 Q 754.48 156.14 753.14 156.14 Q 751.75 156.14 750.88 155.58 Q 750 155.02 749.55 153.95 Q 749.09 152.88 749.09 151.64 Q 749.09 150.3 749.61 149.3 Q 750.12 148.3 751.06 147.78 Q 752.02 147.27 753.16 147.27 Q 754.44 147.27 755.31 147.92 Q 756.2 148.58 756.55 149.77 L 755.42 150.03 Q 755.12 149.09 754.55 148.67 Q 753.98 148.23 753.12 148.23 Q 752.14 148.23 751.47 148.72 Q 750.81 149.19 750.53 149.98 Q 750.27 150.78 750.27 151.64 Q 750.27 152.73 750.58 153.55 Q 750.91 154.36 751.58 154.77 Q 752.25 155.17 753.05 155.17 Q 754 155.17 754.66 154.62 Q 755.33 154.08 755.56 152.98 Z  M 757.57 152.89 Q 757.57 151.16 758.53 150.33 Q 759.32 149.64 760.48 149.64 Q 761.76 149.64 762.57 150.48 Q 763.4 151.31 763.4 152.8 Q 763.4 154 763.04 154.69 Q 762.68 155.38 761.98 155.77 Q 761.29 156.14 760.48 156.14 Q 759.18 156.14 758.37 155.31 Q 757.57 154.47 757.57 152.89 Z  M 758.65 152.89 Q 758.65 154.08 759.17 154.67 Q 759.7 155.27 760.48 155.27 Q 761.28 155.27 761.79 154.67 Q 762.31 154.08 762.31 152.86 Q 762.31 151.7 761.78 151.11 Q 761.26 150.52 760.48 150.52 Q 759.7 150.52 759.17 151.11 Q 758.65 151.69 758.65 152.89 Z  M 768.71 156 L 768.71 155.08 Q 767.98 156.14 766.73 156.14 Q 766.18 156.14 765.7 155.94 Q 765.23 155.72 765 155.41 Q 764.76 155.08 764.67 154.61 Q 764.61 154.31 764.61 153.62 L 764.61 149.78 L 765.67 149.78 L 765.67 153.23 Q 765.67 154.05 765.73 154.34 Q 765.82 154.75 766.14 155 Q 766.46 155.23 766.95 155.23 Q 767.42 155.23 767.82 155 Q 768.25 154.75 768.42 154.33 Q 768.61 153.91 768.61 153.11 L 768.61 149.78 L 769.65 149.78 L 769.65 156 L 768.71 156 Z  M 771.31 156 L 771.31 149.78 L 772.25 149.78 L 772.25 150.66 Q 772.94 149.64 774.23 149.64 Q 774.79 149.64 775.26 149.84 Q 775.75 150.05 775.98 150.38 Q 776.22 150.7 776.31 151.14 Q 776.36 151.44 776.36 152.17 L 776.36 156 L 775.31 156 L 775.31 152.22 Q 775.31 151.56 775.19 151.25 Q 775.06 150.94 774.75 150.75 Q 774.44 150.55 774.01 150.55 Q 773.34 150.55 772.84 150.98 Q 772.36 151.41 772.36 152.59 L 772.36 156 L 771.31 156 Z  M 780.28 155.06 L 780.44 155.98 Q 779.98 156.08 779.64 156.08 Q 779.06 156.08 778.75 155.91 Q 778.44 155.72 778.3 155.42 Q 778.17 155.12 778.17 154.17 L 778.17 150.59 L 777.41 150.59 L 777.41 149.78 L 778.17 149.78 L 778.17 148.23 L 779.22 147.61 L 779.22 149.78 L 780.28 149.78 L 780.28 150.59 L 779.22 150.59 L 779.22 154.23 Q 779.22 154.69 779.27 154.81 Q 779.33 154.94 779.45 155.02 Q 779.58 155.09 779.81 155.09 Q 780 155.09 780.28 155.06 Z  M 781.27 158.39 L 781.15 157.41 Q 781.49 157.5 781.76 157.5 Q 782.1 157.5 782.3 157.38 Q 782.52 157.27 782.66 157.06 Q 782.76 156.89 782.99 156.27 Q 783.01 156.19 783.08 156.02 L 780.71 149.78 L 781.85 149.78 L 783.15 153.38 Q 783.4 154.06 783.6 154.83 Q 783.79 154.09 784.04 153.41 L 785.37 149.78 L 786.41 149.78 L 784.05 156.11 Q 783.66 157.12 783.46 157.52 Q 783.18 158.05 782.8 158.28 Q 782.44 158.53 781.94 158.53 Q 781.65 158.53 781.27 158.39 Z  M 790.78 156 L 790.78 147.41 L 794.03 147.41 Q 794.87 147.41 795.32 147.48 Q 795.96 147.59 796.39 147.89 Q 796.82 148.19 797.07 148.72 Q 797.34 149.25 797.34 149.89 Q 797.34 150.98 796.64 151.75 Q 795.95 152.5 794.12 152.5 L 791.92 152.5 L 791.92 156 L 790.78 156 Z  M 791.92 151.5 L 794.14 151.5 Q 795.25 151.5 795.7 151.09 Q 796.17 150.67 796.17 149.92 Q 796.17 149.39 795.89 149.02 Q 795.62 148.62 795.18 148.5 Q 794.89 148.42 794.12 148.42 L 791.92 148.42 L 791.92 151.5 Z  M 798.27 152.89 Q 798.27 151.16 799.22 150.33 Q 800.02 149.64 801.17 149.64 Q 802.45 149.64 803.27 150.48 Q 804.09 151.31 804.09 152.8 Q 804.09 154 803.73 154.69 Q 803.38 155.38 802.67 155.77 Q 801.98 156.14 801.17 156.14 Q 799.88 156.14 799.06 155.31 Q 798.27 154.47 798.27 152.89 Z  M 799.34 152.89 Q 799.34 154.08 799.86 154.67 Q 800.39 155.27 801.17 155.27 Q 801.97 155.27 802.48 154.67 Q 803 154.08 803 152.86 Q 803 151.7 802.47 151.11 Q 801.95 150.52 801.17 150.52 Q 800.39 150.52 799.86 151.11 Q 799.34 151.69 799.34 152.89 Z  M 805.33 158.39 L 805.33 149.78 L 806.28 149.78 L 806.28 150.58 Q 806.63 150.11 807.05 149.88 Q 807.49 149.64 808.1 149.64 Q 808.89 149.64 809.5 150.05 Q 810.11 150.45 810.41 151.2 Q 810.72 151.95 810.72 152.84 Q 810.72 153.8 810.38 154.56 Q 810.05 155.33 809.39 155.73 Q 808.74 156.14 808.02 156.14 Q 807.49 156.14 807.06 155.92 Q 806.64 155.69 806.38 155.36 L 806.38 158.39 L 805.33 158.39 Z  M 806.28 152.92 Q 806.28 154.12 806.77 154.7 Q 807.25 155.27 807.94 155.27 Q 808.64 155.27 809.14 154.67 Q 809.64 154.08 809.64 152.83 Q 809.64 151.64 809.16 151.06 Q 808.67 150.47 807.99 150.47 Q 807.31 150.47 806.8 151.09 Q 806.28 151.72 806.28 152.92 Z "/></g><g style="fill: rgb(0,0,0); fill-opacity: 1.0; stroke: none" clip-path="url(#_8954082573000clip-0)"><path d="M 753.55 169.23 L 754.61 169.14 Q 754.69 169.8 754.97 170.2 Q 755.25 170.61 755.83 170.88 Q 756.42 171.12 757.16 171.12 Q 757.8 171.12 758.3 170.94 Q 758.8 170.73 759.03 170.41 Q 759.28 170.06 759.28 169.67 Q 759.28 169.27 759.05 168.97 Q 758.81 168.66 758.28 168.45 Q 757.92 168.31 756.73 168.03 Q 755.56 167.75 755.09 167.5 Q 754.47 167.17 754.17 166.7 Q 753.88 166.22 753.88 165.62 Q 753.88 164.98 754.23 164.42 Q 754.61 163.84 755.31 163.56 Q 756.03 163.27 756.89 163.27 Q 757.84 163.27 758.58 163.58 Q 759.31 163.88 759.7 164.48 Q 760.09 165.08 760.12 165.83 L 759.03 165.91 Q 758.94 165.09 758.42 164.69 Q 757.92 164.27 756.94 164.27 Q 755.91 164.27 755.44 164.64 Q 754.97 165.02 754.97 165.55 Q 754.97 166.02 755.3 166.31 Q 755.62 166.61 757 166.92 Q 758.39 167.23 758.91 167.47 Q 759.66 167.83 760.02 168.36 Q 760.38 168.88 760.38 169.58 Q 760.38 170.27 759.98 170.88 Q 759.59 171.47 758.86 171.81 Q 758.12 172.14 757.2 172.14 Q 756.03 172.14 755.23 171.81 Q 754.45 171.47 754 170.78 Q 753.56 170.09 753.55 169.23 Z  M 761.8 172 L 761.8 163.41 L 762.85 163.41 L 762.85 166.48 Q 763.58 165.64 764.71 165.64 Q 765.41 165.64 765.91 165.92 Q 766.43 166.19 766.64 166.67 Q 766.86 167.14 766.86 168.06 L 766.86 172 L 765.82 172 L 765.82 168.06 Q 765.82 167.27 765.47 166.91 Q 765.13 166.55 764.5 166.55 Q 764.04 166.55 763.61 166.8 Q 763.21 167.03 763.02 167.45 Q 762.85 167.86 762.85 168.59 L 762.85 172 L 761.8 172 Z  M 772.54 171.23 Q 771.94 171.73 771.4 171.94 Q 770.87 172.14 770.24 172.14 Q 769.21 172.14 768.66 171.64 Q 768.12 171.14 768.12 170.36 Q 768.12 169.91 768.32 169.53 Q 768.52 169.14 768.87 168.92 Q 769.21 168.69 769.63 168.58 Q 769.93 168.48 770.57 168.41 Q 771.83 168.27 772.44 168.05 Q 772.44 167.83 772.44 167.78 Q 772.44 167.12 772.15 166.86 Q 771.74 166.52 770.94 166.52 Q 770.21 166.52 769.85 166.78 Q 769.49 167.03 769.32 167.69 L 768.29 167.55 Q 768.43 166.89 768.76 166.48 Q 769.08 166.08 769.69 165.86 Q 770.3 165.64 771.1 165.64 Q 771.9 165.64 772.4 165.83 Q 772.9 166.02 773.13 166.3 Q 773.37 166.58 773.46 167.02 Q 773.51 167.28 773.51 167.98 L 773.51 169.39 Q 773.51 170.86 773.57 171.25 Q 773.65 171.64 773.85 172 L 772.74 172 Q 772.58 171.67 772.54 171.23 Z  M 772.44 168.88 Q 771.87 169.11 770.72 169.28 Q 770.07 169.38 769.8 169.5 Q 769.54 169.61 769.38 169.83 Q 769.24 170.05 769.24 170.33 Q 769.24 170.75 769.55 171.03 Q 769.88 171.31 770.49 171.31 Q 771.1 171.31 771.57 171.05 Q 772.05 170.78 772.27 170.31 Q 772.44 169.95 772.44 169.27 L 772.44 168.88 Z  M 775.13 172 L 775.13 165.78 L 776.09 165.78 L 776.09 166.72 Q 776.45 166.06 776.74 165.86 Q 777.05 165.64 777.43 165.64 Q 777.96 165.64 778.51 165.97 L 778.15 166.95 Q 777.76 166.72 777.38 166.72 Q 777.02 166.72 776.74 166.94 Q 776.48 167.14 776.37 167.52 Q 776.18 168.08 776.18 168.73 L 776.18 172 L 775.13 172 Z  M 783.39 170 L 784.49 170.12 Q 784.24 171.08 783.54 171.61 Q 782.83 172.14 781.75 172.14 Q 780.39 172.14 779.58 171.3 Q 778.79 170.45 778.79 168.94 Q 778.79 167.38 779.6 166.52 Q 780.41 165.64 781.69 165.64 Q 782.94 165.64 783.72 166.48 Q 784.52 167.33 784.52 168.88 Q 784.52 168.97 784.52 169.16 L 779.88 169.16 Q 779.94 170.19 780.46 170.73 Q 780.97 171.27 781.75 171.27 Q 782.33 171.27 782.74 170.97 Q 783.16 170.66 783.39 170 Z  M 779.94 168.3 L 783.41 168.3 Q 783.35 167.5 783.02 167.11 Q 782.5 166.5 781.71 166.5 Q 780.97 166.5 780.47 166.98 Q 779.99 167.47 779.94 168.3 Z  M 791.17 174.53 Q 790.29 173.42 789.68 171.95 Q 789.09 170.47 789.09 168.89 Q 789.09 167.5 789.53 166.22 Q 790.06 164.73 791.17 163.27 L 791.92 163.27 Q 791.21 164.48 790.98 165 Q 790.62 165.81 790.42 166.69 Q 790.17 167.78 790.17 168.89 Q 790.17 171.72 791.92 174.53 L 791.17 174.53 Z  M 793.05 165.47 Q 793.05 164.55 793.51 163.91 Q 793.98 163.27 794.85 163.27 Q 795.66 163.27 796.2 163.84 Q 796.73 164.42 796.73 165.53 Q 796.73 166.62 796.18 167.22 Q 795.65 167.8 794.87 167.8 Q 794.09 167.8 793.57 167.22 Q 793.05 166.64 793.05 165.47 Z  M 794.88 163.98 Q 794.49 163.98 794.23 164.33 Q 793.98 164.67 793.98 165.58 Q 793.98 166.41 794.23 166.75 Q 794.49 167.08 794.88 167.08 Q 795.29 167.08 795.54 166.73 Q 795.8 166.39 795.8 165.5 Q 795.8 164.66 795.54 164.33 Q 795.27 163.98 794.88 163.98 Z  M 794.88 172.31 L 799.59 163.27 L 800.45 163.27 L 795.76 172.31 L 794.88 172.31 Z  M 798.6 169.98 Q 798.6 169.06 799.05 168.42 Q 799.52 167.78 800.41 167.78 Q 801.23 167.78 801.76 168.36 Q 802.29 168.92 802.29 170.05 Q 802.29 171.14 801.74 171.73 Q 801.21 172.31 800.41 172.31 Q 799.65 172.31 799.12 171.73 Q 798.6 171.16 798.6 169.98 Z  M 800.45 168.5 Q 800.04 168.5 799.77 168.84 Q 799.52 169.19 799.52 170.09 Q 799.52 170.91 799.79 171.25 Q 800.05 171.59 800.45 171.59 Q 800.84 171.59 801.1 171.25 Q 801.37 170.91 801.37 170 Q 801.37 169.17 801.1 168.84 Q 800.84 168.5 800.45 168.5 Z  M 804.51 174.53 L 803.76 174.53 Q 805.51 171.72 805.51 168.89 Q 805.51 167.8 805.26 166.7 Q 805.05 165.83 804.69 165.02 Q 804.46 164.5 803.76 163.27 L 804.51 163.27 Q 805.6 164.73 806.13 166.22 Q 806.58 167.5 806.58 168.89 Q 806.58 170.47 805.97 171.95 Q 805.37 173.42 804.51 174.53 Z "/></g><ellipse cx="780" cy="240" rx="50" ry="30" style="fill: rgb(192,255,128); fill-opacity: 1.0" clip-path="url(#_8954082573000clip-0)"/><ellipse cx="780" cy="240" rx="46" ry="26" style="stroke-width: 8.0;stroke: rgb(192,192,192);stroke-opacity: 1.0;stroke-linecap: round;stroke-linejoin: round;; fill: none" clip-path="url(#_8954082573000clip-0)"/><ellipse cx="780" cy="240" rx="50" ry="30" style="stroke-width: 1.0;stroke: rgb(0,0,0);stroke-opacity: 1.0;stroke-linecap: round;stroke-linejoin: round;; fill: none" clip-path="url(#_8954082573000clip-0)"/><g style="fill: rgb(0,0,0); fill-opacity: 1.0; stroke: none" clip-path="url(#_8954082573000clip-0)"><path d="M 749.11 228 L 749.11 220.42 L 746.28 220.42 L 746.28 219.41 L 753.09 219.41 L 753.09 220.42 L 750.25 220.42 L 750.25 228 L 749.11 228 Z  M 753.74 224.89 Q 753.74 223.16 754.69 222.33 Q 755.49 221.64 756.64 221.64 Q 757.92 221.64 758.74 222.48 Q 759.56 223.31 759.56 224.8 Q 759.56 226 759.21 226.69 Q 758.85 227.38 758.14 227.77 Q 757.46 228.14 756.64 228.14 Q 755.35 228.14 754.53 227.31 Q 753.74 226.47 753.74 224.89 Z  M 754.81 224.89 Q 754.81 226.08 755.33 226.67 Q 755.86 227.27 756.64 227.27 Q 757.44 227.27 757.96 226.67 Q 758.47 226.08 758.47 224.86 Q 758.47 223.7 757.94 223.11 Q 757.42 222.52 756.64 222.52 Q 755.86 222.52 755.33 223.11 Q 754.81 223.69 754.81 224.89 Z  M 763.1 227.06 L 763.25 227.98 Q 762.8 228.08 762.46 228.08 Q 761.88 228.08 761.57 227.91 Q 761.25 227.72 761.11 227.42 Q 760.99 227.12 760.99 226.17 L 760.99 222.59 L 760.22 222.59 L 760.22 221.78 L 760.99 221.78 L 760.99 220.23 L 762.04 219.61 L 762.04 221.78 L 763.1 221.78 L 763.1 222.59 L 762.04 222.59 L 762.04 226.23 Q 762.04 226.69 762.08 226.81 Q 762.14 226.94 762.27 227.02 Q 762.39 227.09 762.63 227.09 Q 762.82 227.09 763.1 227.06 Z  M 768.2 227.23 Q 767.6 227.73 767.06 227.94 Q 766.53 228.14 765.9 228.14 Q 764.87 228.14 764.32 227.64 Q 763.78 227.14 763.78 226.36 Q 763.78 225.91 763.98 225.53 Q 764.18 225.14 764.53 224.92 Q 764.87 224.69 765.29 224.58 Q 765.59 224.48 766.23 224.41 Q 767.49 224.27 768.1 224.05 Q 768.1 223.83 768.1 223.78 Q 768.1 223.12 767.81 222.86 Q 767.4 222.52 766.6 222.52 Q 765.87 222.52 765.51 222.78 Q 765.15 223.03 764.98 223.69 L 763.95 223.55 Q 764.09 222.89 764.42 222.48 Q 764.74 222.08 765.35 221.86 Q 765.96 221.64 766.76 221.64 Q 767.56 221.64 768.06 221.83 Q 768.56 222.02 768.79 222.3 Q 769.03 222.58 769.12 223.02 Q 769.17 223.28 769.17 223.98 L 769.17 225.39 Q 769.17 226.86 769.23 227.25 Q 769.31 227.64 769.51 228 L 768.4 228 Q 768.24 227.67 768.2 227.23 Z  M 768.1 224.88 Q 767.53 225.11 766.38 225.28 Q 765.73 225.38 765.46 225.5 Q 765.2 225.61 765.04 225.83 Q 764.9 226.05 764.9 226.33 Q 764.9 226.75 765.21 227.03 Q 765.54 227.31 766.15 227.31 Q 766.76 227.31 767.23 227.05 Q 767.71 226.78 767.93 226.31 Q 768.1 225.95 768.1 225.27 L 768.1 224.88 Z  M 770.78 228 L 770.78 219.41 L 771.84 219.41 L 771.84 228 L 770.78 228 Z  M 783.07 224.98 L 784.2 225.28 Q 783.84 226.67 782.92 227.41 Q 782 228.14 780.65 228.14 Q 779.26 228.14 778.39 227.58 Q 777.51 227.02 777.06 225.95 Q 776.61 224.88 776.61 223.64 Q 776.61 222.3 777.12 221.3 Q 777.64 220.3 778.57 219.78 Q 779.53 219.27 780.67 219.27 Q 781.95 219.27 782.82 219.92 Q 783.71 220.58 784.06 221.77 L 782.93 222.03 Q 782.64 221.09 782.06 220.67 Q 781.5 220.23 780.64 220.23 Q 779.65 220.23 778.98 220.72 Q 778.32 221.19 778.04 221.98 Q 777.78 222.78 777.78 223.64 Q 777.78 224.73 778.09 225.55 Q 778.42 226.36 779.09 226.77 Q 779.76 227.17 780.56 227.17 Q 781.51 227.17 782.17 226.62 Q 782.84 226.08 783.07 224.98 Z  M 785.08 224.89 Q 785.08 223.16 786.04 222.33 Q 786.83 221.64 787.99 221.64 Q 789.27 221.64 790.08 222.48 Q 790.91 223.31 790.91 224.8 Q 790.91 226 790.55 226.69 Q 790.19 227.38 789.49 227.77 Q 788.8 228.14 787.99 228.14 Q 786.69 228.14 785.88 227.31 Q 785.08 226.47 785.08 224.89 Z  M 786.16 224.89 Q 786.16 226.08 786.68 226.67 Q 787.21 227.27 787.99 227.27 Q 788.79 227.27 789.3 226.67 Q 789.82 226.08 789.82 224.86 Q 789.82 223.7 789.29 223.11 Q 788.77 222.52 787.99 222.52 Q 787.21 222.52 786.68 223.11 Q 786.16 223.69 786.16 224.89 Z  M 796.23 228 L 796.23 227.08 Q 795.49 228.14 794.24 228.14 Q 793.7 228.14 793.21 227.94 Q 792.74 227.72 792.51 227.41 Q 792.27 227.08 792.18 226.61 Q 792.12 226.31 792.12 225.62 L 792.12 221.78 L 793.18 221.78 L 793.18 225.23 Q 793.18 226.05 793.24 226.34 Q 793.34 226.75 793.65 227 Q 793.98 227.23 794.46 227.23 Q 794.93 227.23 795.34 227 Q 795.76 226.75 795.93 226.33 Q 796.12 225.91 796.12 225.11 L 796.12 221.78 L 797.16 221.78 L 797.16 228 L 796.23 228 Z  M 798.82 228 L 798.82 221.78 L 799.76 221.78 L 799.76 222.66 Q 800.45 221.64 801.74 221.64 Q 802.31 221.64 802.78 221.84 Q 803.26 222.05 803.49 222.38 Q 803.73 222.7 803.82 223.14 Q 803.87 223.44 803.87 224.17 L 803.87 228 L 802.82 228 L 802.82 224.22 Q 802.82 223.56 802.7 223.25 Q 802.57 222.94 802.26 222.75 Q 801.95 222.55 801.53 222.55 Q 800.85 222.55 800.35 222.98 Q 799.87 223.41 799.87 224.59 L 799.87 228 L 798.82 228 Z  M 807.79 227.06 L 807.95 227.98 Q 807.5 228.08 807.15 228.08 Q 806.57 228.08 806.26 227.91 Q 805.95 227.72 805.81 227.42 Q 805.68 227.12 805.68 226.17 L 805.68 222.59 L 804.92 222.59 L 804.92 221.78 L 805.68 221.78 L 805.68 220.23 L 806.73 219.61 L 806.73 221.78 L 807.79 221.78 L 807.79 222.59 L 806.73 222.59 L 806.73 226.23 Q 806.73 226.69 806.78 226.81 Q 806.84 226.94 806.96 227.02 Q 807.09 227.09 807.32 227.09 Q 807.51 227.09 807.79 227.06 Z  M 808.78 230.39 L 808.66 229.41 Q 809 229.5 809.27 229.5 Q 809.61 229.5 809.81 229.38 Q 810.03 229.27 810.17 229.06 Q 810.27 228.89 810.5 228.27 Q 810.52 228.19 810.6 228.02 L 808.22 221.78 L 809.36 221.78 L 810.66 225.38 Q 810.91 226.06 811.11 226.83 Q 811.3 226.09 811.55 225.41 L 812.88 221.78 L 813.92 221.78 L 811.56 228.11 Q 811.17 229.12 810.97 229.52 Q 810.69 230.05 810.31 230.28 Q 809.96 230.53 809.46 230.53 Q 809.16 230.53 808.78 230.39 Z "/></g><g style="fill: rgb(0,0,0); fill-opacity: 1.0; stroke: none" clip-path="url(#_8954082573000clip-0)"><path d="M 748.92 244 L 746.64 235.41 L 747.81 235.41 L 749.12 241.05 Q 749.33 241.92 749.48 242.8 Q 749.81 241.42 749.88 241.2 L 751.5 235.41 L 752.88 235.41 L 754.11 239.75 Q 754.56 241.38 754.78 242.8 Q 754.94 241.98 755.2 240.92 L 756.55 235.41 L 757.69 235.41 L 755.34 244 L 754.23 244 L 752.44 237.45 Q 752.2 236.64 752.16 236.45 Q 752.03 237.03 751.91 237.45 L 750.09 244 L 748.92 244 Z  M 762.69 243.23 Q 762.09 243.73 761.54 243.94 Q 761.01 244.14 760.39 244.14 Q 759.36 244.14 758.81 243.64 Q 758.26 243.14 758.26 242.36 Q 758.26 241.91 758.47 241.53 Q 758.67 241.14 759.01 240.92 Q 759.36 240.69 759.78 240.58 Q 760.08 240.48 760.72 240.41 Q 761.98 240.27 762.59 240.05 Q 762.59 239.83 762.59 239.78 Q 762.59 239.12 762.29 238.86 Q 761.89 238.52 761.09 238.52 Q 760.36 238.52 760 238.78 Q 759.64 239.03 759.47 239.69 L 758.44 239.55 Q 758.58 238.89 758.9 238.48 Q 759.23 238.08 759.84 237.86 Q 760.45 237.64 761.25 237.64 Q 762.04 237.64 762.54 237.83 Q 763.04 238.02 763.28 238.3 Q 763.51 238.58 763.61 239.02 Q 763.65 239.28 763.65 239.98 L 763.65 241.39 Q 763.65 242.86 763.72 243.25 Q 763.79 243.64 764 244 L 762.89 244 Q 762.73 243.67 762.69 243.23 Z  M 762.59 240.88 Q 762.01 241.11 760.87 241.28 Q 760.22 241.38 759.95 241.5 Q 759.69 241.61 759.53 241.83 Q 759.39 242.05 759.39 242.33 Q 759.39 242.75 759.7 243.03 Q 760.03 243.31 760.64 243.31 Q 761.25 243.31 761.72 243.05 Q 762.2 242.78 762.42 242.31 Q 762.59 241.95 762.59 241.27 L 762.59 240.88 Z  M 764.88 242.14 L 765.91 241.98 Q 766 242.61 766.39 242.94 Q 766.8 243.27 767.53 243.27 Q 768.25 243.27 768.59 242.98 Q 768.95 242.69 768.95 242.28 Q 768.95 241.92 768.64 241.72 Q 768.42 241.58 767.56 241.36 Q 766.41 241.06 765.95 240.86 Q 765.52 240.64 765.28 240.27 Q 765.05 239.89 765.05 239.42 Q 765.05 239.02 765.23 238.66 Q 765.42 238.3 765.75 238.06 Q 766 237.89 766.42 237.77 Q 766.84 237.64 767.34 237.64 Q 768.06 237.64 768.61 237.86 Q 769.17 238.06 769.44 238.42 Q 769.7 238.78 769.8 239.38 L 768.77 239.52 Q 768.7 239.05 768.36 238.78 Q 768.03 238.5 767.41 238.5 Q 766.69 238.5 766.38 238.75 Q 766.06 238.98 766.06 239.31 Q 766.06 239.52 766.19 239.67 Q 766.33 239.84 766.59 239.95 Q 766.75 240.02 767.53 240.22 Q 768.66 240.53 769.09 240.72 Q 769.53 240.91 769.78 241.27 Q 770.03 241.62 770.03 242.17 Q 770.03 242.7 769.72 243.17 Q 769.42 243.62 768.84 243.89 Q 768.27 244.14 767.53 244.14 Q 766.31 244.14 765.67 243.64 Q 765.05 243.12 764.88 242.14 Z  M 773.59 243.06 L 773.75 243.98 Q 773.3 244.08 772.95 244.08 Q 772.38 244.08 772.06 243.91 Q 771.75 243.72 771.61 243.42 Q 771.48 243.12 771.48 242.17 L 771.48 238.59 L 770.72 238.59 L 770.72 237.78 L 771.48 237.78 L 771.48 236.23 L 772.53 235.61 L 772.53 237.78 L 773.59 237.78 L 773.59 238.59 L 772.53 238.59 L 772.53 242.23 Q 772.53 242.69 772.58 242.81 Q 772.64 242.94 772.77 243.02 Q 772.89 243.09 773.12 243.09 Q 773.31 243.09 773.59 243.06 Z  M 778.88 242 L 779.97 242.12 Q 779.72 243.08 779.02 243.61 Q 778.32 244.14 777.24 244.14 Q 775.88 244.14 775.07 243.3 Q 774.27 242.45 774.27 240.94 Q 774.27 239.38 775.08 238.52 Q 775.9 237.64 777.18 237.64 Q 778.43 237.64 779.21 238.48 Q 780.01 239.33 780.01 240.88 Q 780.01 240.97 780.01 241.16 L 775.37 241.16 Q 775.43 242.19 775.94 242.73 Q 776.46 243.27 777.24 243.27 Q 777.82 243.27 778.22 242.97 Q 778.65 242.66 778.88 242 Z  M 775.43 240.3 L 778.9 240.3 Q 778.83 239.5 778.51 239.11 Q 777.99 238.5 777.19 238.5 Q 776.46 238.5 775.96 238.98 Q 775.47 239.47 775.43 240.3 Z  M 782.45 244 L 780.54 237.78 L 781.63 237.78 L 782.62 241.38 L 782.99 242.7 Q 783.02 242.61 783.32 241.42 L 784.3 237.78 L 785.38 237.78 L 786.32 241.39 L 786.63 242.58 L 786.99 241.38 L 788.05 237.78 L 789.09 237.78 L 787.13 244 L 786.04 244 L 785.05 240.27 L 784.8 239.22 L 783.55 244 L 782.45 244 Z  M 794.03 243.23 Q 793.44 243.73 792.89 243.94 Q 792.36 244.14 791.74 244.14 Q 790.71 244.14 790.16 243.64 Q 789.61 243.14 789.61 242.36 Q 789.61 241.91 789.81 241.53 Q 790.02 241.14 790.36 240.92 Q 790.71 240.69 791.13 240.58 Q 791.42 240.48 792.06 240.41 Q 793.33 240.27 793.94 240.05 Q 793.94 239.83 793.94 239.78 Q 793.94 239.12 793.64 238.86 Q 793.24 238.52 792.44 238.52 Q 791.71 238.52 791.35 238.78 Q 790.99 239.03 790.81 239.69 L 789.78 239.55 Q 789.92 238.89 790.25 238.48 Q 790.58 238.08 791.19 237.86 Q 791.8 237.64 792.6 237.64 Q 793.39 237.64 793.89 237.83 Q 794.39 238.02 794.63 238.3 Q 794.86 238.58 794.96 239.02 Q 795 239.28 795 239.98 L 795 241.39 Q 795 242.86 795.06 243.25 Q 795.14 243.64 795.35 244 L 794.24 244 Q 794.08 243.67 794.03 243.23 Z  M 793.94 240.88 Q 793.36 241.11 792.22 241.28 Q 791.56 241.38 791.3 241.5 Q 791.03 241.61 790.88 241.83 Q 790.74 242.05 790.74 242.33 Q 790.74 242.75 791.05 243.03 Q 791.38 243.31 791.99 243.31 Q 792.6 243.31 793.06 243.05 Q 793.55 242.78 793.77 242.31 Q 793.94 241.95 793.94 241.27 L 793.94 240.88 Z  M 798.94 243.06 L 799.1 243.98 Q 798.64 244.08 798.3 244.08 Q 797.72 244.08 797.41 243.91 Q 797.1 243.72 796.96 243.42 Q 796.83 243.12 796.83 242.17 L 796.83 238.59 L 796.07 238.59 L 796.07 237.78 L 796.83 237.78 L 796.83 236.23 L 797.88 235.61 L 797.88 237.78 L 798.94 237.78 L 798.94 238.59 L 797.88 238.59 L 797.88 242.23 Q 797.88 242.69 797.93 242.81 Q 797.99 242.94 798.11 243.02 Q 798.24 243.09 798.47 243.09 Q 798.66 243.09 798.94 243.06 Z  M 804.23 242 L 805.32 242.12 Q 805.07 243.08 804.37 243.61 Q 803.67 244.14 802.59 244.14 Q 801.23 244.14 800.42 243.3 Q 799.62 242.45 799.62 240.94 Q 799.62 239.38 800.43 238.52 Q 801.24 237.64 802.53 237.64 Q 803.78 237.64 804.56 238.48 Q 805.35 239.33 805.35 240.88 Q 805.35 240.97 805.35 241.16 L 800.71 241.16 Q 800.78 242.19 801.29 242.73 Q 801.81 243.27 802.59 243.27 Q 803.17 243.27 803.57 242.97 Q 803.99 242.66 804.23 242 Z  M 800.78 240.3 L 804.24 240.3 Q 804.18 239.5 803.85 239.11 Q 803.34 238.5 802.54 238.5 Q 801.81 238.5 801.31 238.98 Q 800.82 239.47 800.78 240.3 Z  M 806.64 244 L 806.64 237.78 L 807.59 237.78 L 807.59 238.72 Q 807.95 238.06 808.25 237.86 Q 808.56 237.64 808.93 237.64 Q 809.46 237.64 810.01 237.97 L 809.65 238.95 Q 809.26 238.72 808.89 238.72 Q 808.53 238.72 808.25 238.94 Q 807.98 239.14 807.87 239.52 Q 807.68 240.08 807.68 240.73 L 807.68 244 L 806.64 244 Z "/></g><g style="fill: rgb(0,0,0); fill-opacity: 1.0; stroke: none" clip-path="url(#_8954082573000clip-0)"><path d="M 770.31 262.53 Q 769.44 261.42 768.83 259.95 Q 768.23 258.47 768.23 256.89 Q 768.23 255.5 768.67 254.22 Q 769.2 252.73 770.31 251.27 L 771.06 251.27 Q 770.36 252.48 770.12 253 Q 769.77 253.81 769.56 254.69 Q 769.31 255.78 769.31 256.89 Q 769.31 259.72 771.06 262.53 L 770.31 262.53 Z  M 772.39 260 L 772.39 251.41 L 774.11 251.41 L 776.14 257.48 Q 776.42 258.34 776.54 258.77 Q 776.68 258.3 777 257.39 L 779.06 251.41 L 780.59 251.41 L 780.59 260 L 779.5 260 L 779.5 252.81 L 777 260 L 775.96 260 L 773.48 252.69 L 773.48 260 L 772.39 260 Z  M 782.37 260 L 782.37 251.41 L 783.51 251.41 L 783.51 258.98 L 787.74 258.98 L 787.74 260 L 782.37 260 Z  M 789.65 262.53 L 788.9 262.53 Q 790.65 259.72 790.65 256.89 Q 790.65 255.8 790.4 254.7 Q 790.2 253.83 789.84 253.02 Q 789.6 252.5 788.9 251.27 L 789.65 251.27 Q 790.74 252.73 791.28 254.22 Q 791.73 255.5 791.73 256.89 Q 791.73 258.47 791.12 259.95 Q 790.51 261.42 789.65 262.53 Z "/></g></svg>
